<?xml version="1.0" encoding="utf-8" standalone="no"?>
<!DOCTYPE svg PUBLIC "-//W3C//DTD SVG 1.1//EN"
  "http://www.w3.org/Graphics/SVG/1.1/DTD/svg11.dtd">
<svg xmlns:xlink="http://www.w3.org/1999/xlink" width="857.088pt" height="404.6976pt" viewBox="0 0 857.088 404.6976" xmlns="http://www.w3.org/2000/svg" version="1.1">
 <metadata>
  <rdf:RDF xmlns:dc="http://purl.org/dc/elements/1.1/" xmlns:cc="http://creativecommons.org/ns#" xmlns:rdf="http://www.w3.org/1999/02/22-rdf-syntax-ns#">
   <cc:Work>
    <dc:type rdf:resource="http://purl.org/dc/dcmitype/StillImage"/>
    <dc:date>2026-09-28T13:38:38.845233</dc:date>
    <dc:format>image/svg+xml</dc:format>
    <dc:creator>
     <cc:Agent>
      <dc:title>Matplotlib v3.10.9, https://matplotlib.org/</dc:title>
     </cc:Agent>
    </dc:creator>
   </cc:Work>
  </rdf:RDF>
 </metadata>
 <defs>
  <style type="text/css">*{stroke-linejoin: round; stroke-linecap: butt}</style>
 </defs>
 <g id="figure_1">
  <g id="patch_1">
   <path d="M 0 404.6976 
L 857.088 404.6976 
L 857.088 0 
L 0 0 
z
" style="fill: #ffffff"/>
  </g>
  <g id="axes_1">
   <g id="patch_2">
    <path d="M 107.748 293.472 
L 433.248 293.472 
L 433.248 63.648 
L 107.748 63.648 
z
" style="fill: #ffffff"/>
   </g>
   <g id="matplotlib.axis_1">
    <g id="xtick_1">
     <g id="line2d_1">
      <defs>
       <path id="m719a830903" d="M 0 0 
L 0 3.5 
" style="stroke: #000000; stroke-width: 0.8"/>
      </defs>
      <g>
       <use xlink:href="#m719a830903" x="125.211524" y="293.472" style="stroke: #000000; stroke-width: 0.8"/>
      </g>
     </g>
     <g id="text_1">
      <!-- $\mathdefault{-10^{1}}$ -->
      <g transform="translate(112.211524 308.070437)">
       <text>
        <tspan x="0" y="-0.064063" style="font-size: 10px; font-family: 'DejaVu Sans'">−</tspan>
        <tspan x="8.378906" y="-0.064063" style="font-size: 10px; font-family: 'DejaVu Sans'">1</tspan>
        <tspan x="14.741211" y="-0.064063" style="font-size: 10px; font-family: 'DejaVu Sans'">0</tspan>
        <tspan x="21.199219" y="-3.892188" style="font-size: 7px; font-family: 'DejaVu Sans'">1</tspan>
       </text>
      </g>
     </g>
    </g>
    <g id="xtick_2">
     <g id="line2d_2">
      <g>
       <use xlink:href="#m719a830903" x="194.199617" y="293.472" style="stroke: #000000; stroke-width: 0.8"/>
      </g>
     </g>
     <g id="text_2">
      <!-- $\mathdefault{-10^{0}}$ -->
      <g transform="translate(181.199617 308.070437)">
       <text>
        <tspan x="0" y="-0.976562" style="font-size: 10px; font-family: 'DejaVu Sans'">−</tspan>
        <tspan x="8.378906" y="-0.976562" style="font-size: 10px; font-family: 'DejaVu Sans'">1</tspan>
        <tspan x="14.741211" y="-0.976562" style="font-size: 10px; font-family: 'DejaVu Sans'">0</tspan>
        <tspan x="21.199219" y="-4.804688" style="font-size: 7px; font-family: 'DejaVu Sans'">0</tspan>
       </text>
      </g>
     </g>
    </g>
    <g id="xtick_3">
     <g id="line2d_3">
      <g>
       <use xlink:href="#m719a830903" x="270.853053" y="293.472" style="stroke: #000000; stroke-width: 0.8"/>
      </g>
     </g>
     <g id="text_3">
      <!-- $\mathdefault{0}$ -->
      <g transform="translate(267.653053 308.070437)">
       <text>
        <tspan x="0" y="-0.578125" style="font-size: 10px; font-family: 'DejaVu Sans'">0</tspan>
       </text>
      </g>
     </g>
    </g>
    <g id="xtick_4">
     <g id="line2d_4">
      <g>
       <use xlink:href="#m719a830903" x="347.50649" y="293.472" style="stroke: #000000; stroke-width: 0.8"/>
      </g>
     </g>
     <g id="text_4">
      <!-- $\mathdefault{10^{0}}$ -->
      <g transform="translate(338.70649 308.070437)">
       <text>
        <tspan x="0" y="-0.976562" style="font-size: 10px; font-family: 'DejaVu Sans'">1</tspan>
        <tspan x="6.362305" y="-0.976562" style="font-size: 10px; font-family: 'DejaVu Sans'">0</tspan>
        <tspan x="12.820312" y="-4.804688" style="font-size: 7px; font-family: 'DejaVu Sans'">0</tspan>
       </text>
      </g>
     </g>
    </g>
    <g id="xtick_5">
     <g id="line2d_5">
      <g>
       <use xlink:href="#m719a830903" x="416.494583" y="293.472" style="stroke: #000000; stroke-width: 0.8"/>
      </g>
     </g>
     <g id="text_5">
      <!-- $\mathdefault{10^{1}}$ -->
      <g transform="translate(407.694583 308.070437)">
       <text>
        <tspan x="0" y="-0.064063" style="font-size: 10px; font-family: 'DejaVu Sans'">1</tspan>
        <tspan x="6.362305" y="-0.064063" style="font-size: 10px; font-family: 'DejaVu Sans'">0</tspan>
        <tspan x="12.820312" y="-3.892188" style="font-size: 7px; font-family: 'DejaVu Sans'">1</tspan>
       </text>
      </g>
     </g>
    </g>
    <g id="text_6">
     <text style="font-size: 10px; font-family: 'DejaVu Sans', 'Bitstream Vera Sans', 'Computer Modern Sans Serif', 'Lucida Grande', 'Verdana', 'Geneva', 'Lucid', 'Arial', 'Helvetica', 'Avant Garde', sans-serif; text-anchor: middle" x="270.498" y="321.748562" transform="rotate(-0 270.498 321.748562)">BCA minus host continuation return (symlog)</text>
    </g>
   </g>
   <g id="matplotlib.axis_2">
    <g id="ytick_1">
     <g id="line2d_6">
      <defs>
       <path id="m5001b23019" d="M 0 0 
L -3.5 0 
" style="stroke: #000000; stroke-width: 0.8"/>
      </defs>
      <g>
       <use xlink:href="#m5001b23019" x="107.748" y="283.844791" style="stroke: #000000; stroke-width: 0.8"/>
      </g>
     </g>
     <g id="text_7">
      <text style="font-size: 10px; font-family: 'DejaVu Sans', 'Bitstream Vera Sans', 'Computer Modern Sans Serif', 'Lucida Grande', 'Verdana', 'Geneva', 'Lucid', 'Arial', 'Helvetica', 'Avant Garde', sans-serif; text-anchor: end" x="100.748" y="287.64401" transform="rotate(-0 100.748 287.64401)">0.0</text>
     </g>
    </g>
    <g id="ytick_2">
     <g id="line2d_7">
      <g>
       <use xlink:href="#m5001b23019" x="107.748" y="241.894742" style="stroke: #000000; stroke-width: 0.8"/>
      </g>
     </g>
     <g id="text_8">
      <text style="font-size: 10px; font-family: 'DejaVu Sans', 'Bitstream Vera Sans', 'Computer Modern Sans Serif', 'Lucida Grande', 'Verdana', 'Geneva', 'Lucid', 'Arial', 'Helvetica', 'Avant Garde', sans-serif; text-anchor: end" x="100.748" y="245.693961" transform="rotate(-0 100.748 245.693961)">0.2</text>
     </g>
    </g>
    <g id="ytick_3">
     <g id="line2d_8">
      <g>
       <use xlink:href="#m5001b23019" x="107.748" y="199.944693" style="stroke: #000000; stroke-width: 0.8"/>
      </g>
     </g>
     <g id="text_9">
      <text style="font-size: 10px; font-family: 'DejaVu Sans', 'Bitstream Vera Sans', 'Computer Modern Sans Serif', 'Lucida Grande', 'Verdana', 'Geneva', 'Lucid', 'Arial', 'Helvetica', 'Avant Garde', sans-serif; text-anchor: end" x="100.748" y="203.743912" transform="rotate(-0 100.748 203.743912)">0.4</text>
     </g>
    </g>
    <g id="ytick_4">
     <g id="line2d_9">
      <g>
       <use xlink:href="#m5001b23019" x="107.748" y="157.994644" style="stroke: #000000; stroke-width: 0.8"/>
      </g>
     </g>
     <g id="text_10">
      <text style="font-size: 10px; font-family: 'DejaVu Sans', 'Bitstream Vera Sans', 'Computer Modern Sans Serif', 'Lucida Grande', 'Verdana', 'Geneva', 'Lucid', 'Arial', 'Helvetica', 'Avant Garde', sans-serif; text-anchor: end" x="100.748" y="161.793863" transform="rotate(-0 100.748 161.793863)">0.6</text>
     </g>
    </g>
    <g id="ytick_5">
     <g id="line2d_10">
      <g>
       <use xlink:href="#m5001b23019" x="107.748" y="116.044595" style="stroke: #000000; stroke-width: 0.8"/>
      </g>
     </g>
     <g id="text_11">
      <text style="font-size: 10px; font-family: 'DejaVu Sans', 'Bitstream Vera Sans', 'Computer Modern Sans Serif', 'Lucida Grande', 'Verdana', 'Geneva', 'Lucid', 'Arial', 'Helvetica', 'Avant Garde', sans-serif; text-anchor: end" x="100.748" y="119.843813" transform="rotate(-0 100.748 119.843813)">0.8</text>
     </g>
    </g>
    <g id="ytick_6">
     <g id="line2d_11">
      <g>
       <use xlink:href="#m5001b23019" x="107.748" y="74.094545" style="stroke: #000000; stroke-width: 0.8"/>
      </g>
     </g>
     <g id="text_12">
      <text style="font-size: 10px; font-family: 'DejaVu Sans', 'Bitstream Vera Sans', 'Computer Modern Sans Serif', 'Lucida Grande', 'Verdana', 'Geneva', 'Lucid', 'Arial', 'Helvetica', 'Avant Garde', sans-serif; text-anchor: end" x="100.748" y="77.893764" transform="rotate(-0 100.748 77.893764)">1.0</text>
     </g>
    </g>
    <g id="text_13">
     <text style="font-size: 10px; font-family: 'DejaVu Sans', 'Bitstream Vera Sans', 'Computer Modern Sans Serif', 'Lucida Grande', 'Verdana', 'Geneva', 'Lucid', 'Arial', 'Helvetica', 'Avant Garde', sans-serif; text-anchor: middle" x="78.765187" y="178.56" transform="rotate(-90 78.765187 178.56)">Empirical cumulative fraction</text>
    </g>
   </g>
   <g id="line2d_12">
    <path d="M 110.568535 283.025455 
L 115.571093 282.206118 
L 116.686349 281.386781 
L 120.11746 279.748107 
L 120.618106 278.92877 
L 122.469465 278.109433 
L 123.174996 277.290096 
L 123.388547 276.470759 
L 123.849538 275.651422 
L 124.051162 274.832086 
L 126.721201 274.012749 
L 127.245286 273.193412 
L 129.024976 272.374075 
L 129.172233 270.735401 
L 129.293188 269.916064 
L 129.780908 268.27739 
L 130.688329 267.458053 
L 131.14646 266.638717 
L 131.26044 265.81938 
L 131.26044 265.000043 
L 131.682065 264.180706 
L 131.682065 263.361369 
L 131.858397 262.542032 
L 131.944016 260.903358 
L 132.230397 259.264684 
L 132.831391 258.445348 
L 132.864377 256.806674 
L 132.998248 255.987337 
L 133.249279 255.168 
L 133.249279 254.348663 
L 133.682498 253.529326 
L 133.896505 252.709989 
L 133.896505 251.890652 
L 134.075919 251.071316 
L 134.62235 249.432642 
L 134.851996 248.613305 
L 134.851996 247.793968 
L 135.35739 246.974631 
L 135.522078 245.335957 
L 136.186049 243.697283 
L 136.186049 242.877947 
L 136.366777 242.05861 
L 136.442507 239.600599 
L 136.586882 237.961925 
L 137.645639 237.142588 
L 137.645639 236.323251 
L 138.360809 234.684578 
L 138.360809 233.865241 
L 138.609978 233.045904 
L 138.822274 228.949219 
L 139.200846 228.129882 
L 139.274969 226.491209 
L 139.463493 224.033198 
L 139.740728 223.213861 
L 139.740728 222.394524 
L 140.47405 221.575187 
L 141.122618 219.936513 
L 141.122618 219.117176 
L 142.319599 218.29784 
L 142.895701 216.659166 
L 142.90073 214.201155 
L 143.567822 213.381818 
L 143.567822 212.562481 
L 143.79076 211.743144 
L 143.811287 210.104471 
L 144.077081 209.285134 
L 144.144398 205.188449 
L 145.167675 204.369112 
L 145.167675 203.549775 
L 145.497677 202.730439 
L 145.497677 201.911102 
L 145.684803 201.091765 
L 146.356796 200.272428 
L 146.356796 199.453091 
L 147.266884 198.633754 
L 148.373337 197.814417 
L 148.45273 195.356406 
L 149.005888 194.53707 
L 149.006351 193.717733 
L 149.315509 192.898396 
L 149.315509 192.079059 
L 149.427703 191.259722 
L 149.427703 190.440385 
L 150.01428 188.801711 
L 150.01428 187.982374 
L 150.392343 186.343701 
L 150.484004 184.705027 
L 151.373901 183.88569 
L 152.03014 183.066353 
L 152.154107 180.608342 
L 152.845125 179.789005 
L 152.845125 178.969668 
L 154.274535 178.150332 
L 154.331154 176.511658 
L 154.741647 175.692321 
L 154.76841 174.053647 
L 155.812091 173.23431 
L 155.812091 172.414973 
L 156.168816 171.595636 
L 156.168816 170.776299 
L 156.977836 169.137626 
L 158.133811 168.318289 
L 158.63572 166.679615 
L 158.63572 165.860278 
L 158.873515 165.040941 
L 159.589577 164.221604 
L 162.330622 163.402267 
L 162.559289 162.58293 
L 162.559289 161.763594 
L 164.103713 160.12492 
L 164.343849 159.305583 
L 164.343849 158.486246 
L 164.542618 157.666909 
L 164.542618 156.847572 
L 164.901612 156.028235 
L 165.073513 155.208898 
L 165.073513 154.389561 
L 165.355927 153.570225 
L 165.510119 150.292877 
L 166.247542 149.47354 
L 166.35832 147.015529 
L 166.631984 146.196193 
L 166.755683 143.738182 
L 167.273254 142.918845 
L 167.273254 142.099508 
L 167.794389 141.280171 
L 167.796579 138.82216 
L 169.149534 138.002824 
L 169.501734 137.183487 
L 170.331751 136.36415 
L 170.331751 135.544813 
L 170.715565 134.725476 
L 170.715565 133.906139 
L 173.118869 133.086802 
L 173.118869 132.267465 
L 173.412048 131.448128 
L 173.412048 130.628791 
L 175.177391 129.809455 
L 175.749654 128.990118 
L 175.799403 126.532107 
L 175.904125 125.71277 
L 176.451217 124.893433 
L 177.55513 124.074096 
L 177.55513 123.254759 
L 177.878912 122.435422 
L 180.234316 120.796749 
L 180.812474 119.977412 
L 183.126063 119.158075 
L 183.333877 118.338738 
L 186.112278 116.700064 
L 187.088685 115.880727 
L 191.031049 114.242053 
L 191.031049 113.422717 
L 193.26842 112.60338 
L 193.26842 111.784043 
L 197.534495 110.964706 
L 214.712439 110.145369 
L 214.712439 109.326032 
L 219.648977 108.506695 
L 219.648977 107.687358 
L 220.920057 106.868021 
L 220.920057 106.048684 
L 222.692966 105.229348 
L 230.796789 104.410011 
L 233.934257 103.590674 
L 240.486077 102.771337 
L 240.486077 101.952 
L 246.116414 101.132663 
L 246.116414 100.313326 
L 252.266827 99.493989 
L 252.266827 98.674652 
L 254.007503 97.855316 
L 292.244277 97.035979 
L 292.244277 96.216642 
L 308.923656 95.397305 
L 331.537128 94.577968 
L 344.729057 93.758631 
L 347.576739 92.939294 
L 360.30425 91.30062 
L 360.946964 90.481283 
L 362.220226 89.661947 
L 362.729851 88.84261 
L 364.972162 88.023273 
L 370.429206 87.203936 
L 370.581583 86.384599 
L 382.121157 84.745925 
L 384.950601 83.926588 
L 386.768729 83.107251 
L 392.501922 82.287914 
L 395.769675 81.468578 
L 397.691467 80.649241 
L 400.112798 79.829904 
L 403.215499 79.010567 
L 409.707497 78.19123 
L 409.813945 77.371893 
L 414.721667 76.552556 
L 415.345124 75.733219 
L 429.913631 74.913882 
L 430.356447 74.094545 
L 430.356447 74.094545 
" clip-path="url(#pdc7790e6d1)" style="fill: none; stroke: #17618b; stroke-width: 2; stroke-linecap: square"/>
   </g>
   <g id="line2d_13">
    <path d="M 115.329909 283.025455 
L 115.659888 282.206118 
L 118.20235 281.386781 
L 119.16975 280.567444 
L 119.507601 279.748107 
L 120.136065 278.92877 
L 120.22824 278.109433 
L 120.495566 277.290096 
L 122.907525 276.470759 
L 123.645614 274.832086 
L 124.845886 273.193412 
L 126.025933 272.374075 
L 126.371069 271.554738 
L 128.694103 270.735401 
L 128.817516 269.916064 
L 129.156982 269.096727 
L 129.444504 267.458053 
L 129.773664 266.638717 
L 129.974881 265.81938 
L 130.003754 264.180706 
L 130.303939 263.361369 
L 130.76454 260.903358 
L 130.780064 260.084021 
L 131.484662 259.264684 
L 131.484662 258.445348 
L 132.009718 257.626011 
L 132.127714 256.806674 
L 132.127714 255.987337 
L 132.809604 255.168 
L 133.279223 254.348663 
L 133.418251 253.529326 
L 133.813826 252.709989 
L 133.813826 251.890652 
L 134.205445 249.432642 
L 135.011773 248.613305 
L 136.041209 246.974631 
L 136.041209 246.155294 
L 136.306579 245.335957 
L 136.519858 243.697283 
L 136.519858 242.877947 
L 136.751051 242.05861 
L 136.751051 241.239273 
L 138.295598 240.419936 
L 138.295598 239.600599 
L 138.745171 238.781262 
L 138.852643 235.503914 
L 139.669269 234.684578 
L 139.885251 233.865241 
L 139.885251 233.045904 
L 140.169221 232.226567 
L 140.273788 230.587893 
L 140.535361 227.310545 
L 141.08517 226.491209 
L 141.08517 225.671872 
L 141.870285 224.852535 
L 141.870285 224.033198 
L 141.992711 223.213861 
L 141.992711 222.394524 
L 142.548845 221.575187 
L 142.682679 220.75585 
L 142.682679 219.936513 
L 143.035997 219.117176 
L 143.122625 217.478503 
L 143.219867 215.839829 
L 143.458123 210.923807 
L 143.919484 210.104471 
L 143.959472 208.465797 
L 144.299913 207.64646 
L 144.299913 206.827123 
L 144.531473 206.007786 
L 144.531473 205.188449 
L 144.877337 204.369112 
L 145.018047 203.549775 
L 145.337652 202.730439 
L 145.51883 199.453091 
L 145.775081 198.633754 
L 146.174112 197.814417 
L 146.967576 196.99508 
L 147.080777 196.175743 
L 147.919264 195.356406 
L 147.919264 194.53707 
L 148.321503 193.717733 
L 149.65551 192.898396 
L 149.715695 192.079059 
L 150.963879 191.259722 
L 151.45418 190.440385 
L 151.999198 188.801711 
L 152.355932 187.982374 
L 152.399786 186.343701 
L 154.25252 185.524364 
L 155.441682 184.705027 
L 155.845451 183.88569 
L 155.845451 183.066353 
L 156.121791 182.247016 
L 156.283744 180.608342 
L 156.290511 176.511658 
L 156.759784 175.692321 
L 156.766915 174.053647 
L 156.908464 173.23431 
L 157.293534 172.414973 
L 158.338554 171.595636 
L 158.620932 170.776299 
L 158.768786 169.956963 
L 159.665042 167.498952 
L 160.144223 166.679615 
L 160.144223 165.860278 
L 161.096712 165.040941 
L 161.676771 164.221604 
L 163.030034 163.402267 
L 164.106497 162.58293 
L 164.276617 161.763594 
L 164.967065 160.12492 
L 164.975851 157.666909 
L 165.399064 156.847572 
L 165.614541 156.028235 
L 165.689436 154.389561 
L 165.83031 153.570225 
L 166.433643 152.750888 
L 167.104158 151.112214 
L 167.234968 150.292877 
L 168.671655 149.47354 
L 168.671655 148.654203 
L 169.524174 147.834866 
L 169.524174 147.015529 
L 169.830309 146.196193 
L 169.830309 145.376856 
L 170.377138 144.557519 
L 170.487845 142.099508 
L 170.856527 140.460834 
L 170.856527 139.641497 
L 176.257203 138.82216 
L 176.284244 137.183487 
L 177.587466 136.36415 
L 177.587466 135.544813 
L 177.813489 134.725476 
L 177.813489 133.906139 
L 178.783857 133.086802 
L 180.578454 132.267465 
L 183.013968 131.448128 
L 183.013968 130.628791 
L 183.403442 129.809455 
L 185.617552 128.990118 
L 185.617552 128.170781 
L 186.439123 127.351444 
L 186.439123 126.532107 
L 188.226228 125.71277 
L 189.083983 124.893433 
L 192.354779 124.074096 
L 192.60282 123.254759 
L 192.60282 122.435422 
L 194.030616 121.616086 
L 194.134271 119.977412 
L 205.920095 119.158075 
L 205.920095 118.338738 
L 206.572853 117.519401 
L 209.469778 116.700064 
L 209.469778 115.880727 
L 212.341317 115.06139 
L 213.670157 114.242053 
L 213.670157 113.422717 
L 216.486406 112.60338 
L 216.486406 111.784043 
L 220.827453 110.964706 
L 220.827453 110.145369 
L 225.256051 109.326032 
L 232.135859 108.506695 
L 232.135859 107.687358 
L 237.215516 106.868021 
L 245.001492 106.048684 
L 245.001492 105.229348 
L 254.933919 104.410011 
L 254.933919 103.590674 
L 259.465866 102.771337 
L 259.465866 101.952 
L 261.895524 101.132663 
L 261.895524 100.313326 
L 272.799338 99.493989 
L 272.799338 98.674652 
L 300.221885 97.855316 
L 300.221885 97.035979 
L 306.813493 96.216642 
L 307.625285 95.397305 
L 324.127686 94.577968 
L 325.996793 93.758631 
L 325.996793 92.939294 
L 332.921514 92.119957 
L 346.671992 91.30062 
L 356.056919 90.481283 
L 359.799607 89.661947 
L 362.197391 88.84261 
L 368.136104 88.023273 
L 370.5681 87.203936 
L 371.239994 86.384599 
L 372.346325 85.565262 
L 377.550131 84.745925 
L 378.778151 83.926588 
L 381.929641 83.107251 
L 386.780405 82.287914 
L 395.846813 81.468578 
L 398.171416 80.649241 
L 399.341946 79.829904 
L 402.258479 79.010567 
L 409.593621 78.19123 
L 410.846802 77.371893 
L 414.39099 76.552556 
L 415.701078 75.733219 
L 429.044499 74.913882 
L 430.006794 74.094545 
L 430.006794 74.094545 
" clip-path="url(#pdc7790e6d1)" style="fill: none; stroke: #c45b32; stroke-width: 2; stroke-linecap: square"/>
   </g>
   <g id="line2d_14">
    <path d="M 270.853053 293.472 
L 270.853053 63.648 
" clip-path="url(#pdc7790e6d1)" style="fill: none; stroke-dasharray: 3.7,1.6; stroke-dashoffset: 0; stroke: #888888"/>
   </g>
   <g id="patch_3">
    <path d="M 107.748 293.472 
L 107.748 63.648 
" style="fill: none; stroke: #000000; stroke-width: 0.8; stroke-linejoin: miter; stroke-linecap: square"/>
   </g>
   <g id="patch_4">
    <path d="M 107.748 293.472 
L 433.248 293.472 
" style="fill: none; stroke: #000000; stroke-width: 0.8; stroke-linejoin: miter; stroke-linecap: square"/>
   </g>
   <g id="text_14">
    <text style="font-size: 12px; font-family: 'DejaVu Sans', 'Bitstream Vera Sans', 'Computer Modern Sans Serif', 'Lucida Grande', 'Verdana', 'Geneva', 'Lucid', 'Arial', 'Helvetica', 'Avant Garde', sans-serif; text-anchor: middle" x="270.498" y="57.648" transform="rotate(-0 270.498 57.648)">Continuation effect · fixed first action</text>
   </g>
   <g id="legend_1">
    <g id="line2d_15">
     <path d="M 116.748 76.746437 
L 126.748 76.746437 
L 136.748 76.746437 
" style="fill: none; stroke: #17618b; stroke-width: 2; stroke-linecap: square"/>
    </g>
    <g id="text_15">
     <text style="font-size: 10px; font-family: 'DejaVu Sans', 'Bitstream Vera Sans', 'Computer Modern Sans Serif', 'Lucida Grande', 'Verdana', 'Geneva', 'Lucid', 'Arial', 'Helvetica', 'Avant Garde', sans-serif; text-anchor: start" x="144.748" y="80.246437" transform="rotate(-0 144.748 80.246437)">Host first action</text>
    </g>
    <g id="line2d_16">
     <path d="M 116.748 91.424562 
L 126.748 91.424562 
L 136.748 91.424562 
" style="fill: none; stroke: #c45b32; stroke-width: 2; stroke-linecap: square"/>
    </g>
    <g id="text_16">
     <text style="font-size: 10px; font-family: 'DejaVu Sans', 'Bitstream Vera Sans', 'Computer Modern Sans Serif', 'Lucida Grande', 'Verdana', 'Geneva', 'Lucid', 'Arial', 'Helvetica', 'Avant Garde', sans-serif; text-anchor: start" x="144.748" y="94.924562" transform="rotate(-0 144.748 94.924562)">BCA first action</text>
    </g>
   </g>
  </g>
  <g id="axes_2">
   <g id="patch_5">
    <path d="M 524.388 293.472 
L 849.888 293.472 
L 849.888 63.648 
L 524.388 63.648 
z
" style="fill: #ffffff"/>
   </g>
   <g id="patch_6">
    <path d="M 539.183455 293.472 
L 550.143051 293.472 
L 550.143051 130.191548 
L 539.183455 130.191548 
z
" clip-path="url(#p236b927009)" style="fill: #17618b"/>
   </g>
   <g id="patch_7">
    <path d="M 569.626777 293.472 
L 580.586373 293.472 
L 580.586373 127.108351 
L 569.626777 127.108351 
z
" clip-path="url(#p236b927009)" style="fill: #17618b"/>
   </g>
   <g id="patch_8">
    <path d="M 600.070099 293.472 
L 611.029695 293.472 
L 611.029695 140.042088 
L 600.070099 140.042088 
z
" clip-path="url(#p236b927009)" style="fill: #17618b"/>
   </g>
   <g id="patch_9">
    <path d="M 630.513421 293.472 
L 641.473017 293.472 
L 641.473017 242.545904 
L 630.513421 242.545904 
z
" clip-path="url(#p236b927009)" style="fill: #17618b"/>
   </g>
   <g id="patch_10">
    <path d="M 660.956743 293.472 
L 671.916339 293.472 
L 671.916339 127.669013 
L 660.956743 127.669013 
z
" clip-path="url(#p236b927009)" style="fill: #17618b"/>
   </g>
   <g id="patch_11">
    <path d="M 691.400065 293.472 
L 702.359661 293.472 
L 702.359661 130.453571 
L 691.400065 130.453571 
z
" clip-path="url(#p236b927009)" style="fill: #17618b"/>
   </g>
   <g id="patch_12">
    <path d="M 721.843387 293.472 
L 732.802983 293.472 
L 732.802983 131.834584 
L 721.843387 131.834584 
z
" clip-path="url(#p236b927009)" style="fill: #17618b"/>
   </g>
   <g id="patch_13">
    <path d="M 752.286709 293.472 
L 763.246305 293.472 
L 763.246305 133.26749 
L 752.286709 133.26749 
z
" clip-path="url(#p236b927009)" style="fill: #17618b"/>
   </g>
   <g id="patch_14">
    <path d="M 782.730031 293.472 
L 793.689627 293.472 
L 793.689627 146.093023 
L 782.730031 146.093023 
z
" clip-path="url(#p236b927009)" style="fill: #17618b"/>
   </g>
   <g id="patch_15">
    <path d="M 813.173354 293.472 
L 824.132949 293.472 
L 824.132949 143.110991 
L 813.173354 143.110991 
z
" clip-path="url(#p236b927009)" style="fill: #17618b"/>
   </g>
   <g id="patch_16">
    <path d="M 550.143051 293.472 
L 561.102646 293.472 
L 561.102646 80.97749 
L 550.143051 80.97749 
z
" clip-path="url(#p236b927009)" style="fill: #a4a4a4"/>
   </g>
   <g id="patch_17">
    <path d="M 580.586373 293.472 
L 591.545969 293.472 
L 591.545969 74.592 
L 580.586373 74.592 
z
" clip-path="url(#p236b927009)" style="fill: #a4a4a4"/>
   </g>
   <g id="patch_18">
    <path d="M 611.029695 293.472 
L 621.989291 293.472 
L 621.989291 126.562678 
L 611.029695 126.562678 
z
" clip-path="url(#p236b927009)" style="fill: #a4a4a4"/>
   </g>
   <g id="patch_19">
    <path d="M 641.473017 293.472 
L 652.432613 293.472 
L 652.432613 229.329298 
L 641.473017 229.329298 
z
" clip-path="url(#p236b927009)" style="fill: #a4a4a4"/>
   </g>
   <g id="patch_20">
    <path d="M 671.916339 293.472 
L 682.875935 293.472 
L 682.875935 85.187158 
L 671.916339 85.187158 
z
" clip-path="url(#p236b927009)" style="fill: #a4a4a4"/>
   </g>
   <g id="patch_21">
    <path d="M 702.359661 293.472 
L 713.319257 293.472 
L 713.319257 81.968238 
L 702.359661 81.968238 
z
" clip-path="url(#p236b927009)" style="fill: #a4a4a4"/>
   </g>
   <g id="patch_22">
    <path d="M 732.802983 293.472 
L 743.762579 293.472 
L 743.762579 99.277146 
L 732.802983 99.277146 
z
" clip-path="url(#p236b927009)" style="fill: #a4a4a4"/>
   </g>
   <g id="patch_23">
    <path d="M 763.246305 293.472 
L 774.205901 293.472 
L 774.205901 94.478592 
L 763.246305 94.478592 
z
" clip-path="url(#p236b927009)" style="fill: #a4a4a4"/>
   </g>
   <g id="patch_24">
    <path d="M 793.689627 293.472 
L 804.649223 293.472 
L 804.649223 129.594885 
L 793.689627 129.594885 
z
" clip-path="url(#p236b927009)" style="fill: #a4a4a4"/>
   </g>
   <g id="patch_25">
    <path d="M 824.132949 293.472 
L 835.092545 293.472 
L 835.092545 118.314187 
L 824.132949 118.314187 
z
" clip-path="url(#p236b927009)" style="fill: #a4a4a4"/>
   </g>
   <g id="matplotlib.axis_3">
    <g id="xtick_6">
     <g id="line2d_17">
      <g>
       <use xlink:href="#m719a830903" x="550.143051" y="293.472" style="stroke: #000000; stroke-width: 0.8"/>
      </g>
     </g>
     <g id="text_17">
      <text style="font-size: 10px; font-family: 'DejaVu Sans', 'Bitstream Vera Sans', 'Computer Modern Sans Serif', 'Lucida Grande', 'Verdana', 'Geneva', 'Lucid', 'Arial', 'Helvetica', 'Avant Garde', sans-serif" transform="translate(516.663507 333.263707) rotate(-40)">Host ref.</text>
     </g>
    </g>
    <g id="xtick_7">
     <g id="line2d_18">
      <g>
       <use xlink:href="#m719a830903" x="580.586373" y="293.472" style="stroke: #000000; stroke-width: 0.8"/>
      </g>
     </g>
     <g id="text_18">
      <text style="font-size: 10px; font-family: 'DejaVu Sans', 'Bitstream Vera Sans', 'Computer Modern Sans Serif', 'Lucida Grande', 'Verdana', 'Geneva', 'Lucid', 'Arial', 'Helvetica', 'Avant Garde', sans-serif" transform="translate(563.538483 319.475913) rotate(-40)">BCA</text>
     </g>
    </g>
    <g id="xtick_8">
     <g id="line2d_19">
      <g>
       <use xlink:href="#m719a830903" x="611.029695" y="293.472" style="stroke: #000000; stroke-width: 0.8"/>
      </g>
     </g>
     <g id="text_19">
      <text style="font-size: 10px; font-family: 'DejaVu Sans', 'Bitstream Vera Sans', 'Computer Modern Sans Serif', 'Lucida Grande', 'Verdana', 'Geneva', 'Lucid', 'Arial', 'Helvetica', 'Avant Garde', sans-serif" transform="translate(579.86983 331.317266) rotate(-40)">Nearest</text>
     </g>
    </g>
    <g id="xtick_9">
     <g id="line2d_20">
      <g>
       <use xlink:href="#m719a830903" x="641.473017" y="293.472" style="stroke: #000000; stroke-width: 0.8"/>
      </g>
     </g>
     <g id="text_20">
      <text style="font-size: 10px; font-family: 'DejaVu Sans', 'Bitstream Vera Sans', 'Computer Modern Sans Serif', 'Lucida Grande', 'Verdana', 'Geneva', 'Lucid', 'Arial', 'Helvetica', 'Avant Garde', sans-serif" transform="translate(609.685953 331.843548) rotate(-40)">Uniform</text>
     </g>
    </g>
    <g id="xtick_10">
     <g id="line2d_21">
      <g>
       <use xlink:href="#m719a830903" x="671.916339" y="293.472" style="stroke: #000000; stroke-width: 0.8"/>
      </g>
     </g>
     <g id="text_21">
      <text style="font-size: 10px; font-family: 'DejaVu Sans', 'Bitstream Vera Sans', 'Computer Modern Sans Serif', 'Lucida Grande', 'Verdana', 'Geneva', 'Lucid', 'Arial', 'Helvetica', 'Avant Garde', sans-serif" transform="translate(647.10387 325.991168) rotate(-40)">−0.05</text>
     </g>
    </g>
    <g id="xtick_11">
     <g id="line2d_22">
      <g>
       <use xlink:href="#m719a830903" x="702.359661" y="293.472" style="stroke: #000000; stroke-width: 0.8"/>
      </g>
     </g>
     <g id="text_22">
      <text style="font-size: 10px; font-family: 'DejaVu Sans', 'Bitstream Vera Sans', 'Computer Modern Sans Serif', 'Lucida Grande', 'Verdana', 'Geneva', 'Lucid', 'Arial', 'Helvetica', 'Avant Garde', sans-serif" transform="translate(677.547192 325.991168) rotate(-40)">+0.05</text>
     </g>
    </g>
    <g id="xtick_12">
     <g id="line2d_23">
      <g>
       <use xlink:href="#m719a830903" x="732.802983" y="293.472" style="stroke: #000000; stroke-width: 0.8"/>
      </g>
     </g>
     <g id="text_23">
      <text style="font-size: 10px; font-family: 'DejaVu Sans', 'Bitstream Vera Sans', 'Computer Modern Sans Serif', 'Lucida Grande', 'Verdana', 'Geneva', 'Lucid', 'Arial', 'Helvetica', 'Avant Garde', sans-serif" transform="translate(707.990514 325.991168) rotate(-40)">−0.15</text>
     </g>
    </g>
    <g id="xtick_13">
     <g id="line2d_24">
      <g>
       <use xlink:href="#m719a830903" x="763.246305" y="293.472" style="stroke: #000000; stroke-width: 0.8"/>
      </g>
     </g>
     <g id="text_24">
      <text style="font-size: 10px; font-family: 'DejaVu Sans', 'Bitstream Vera Sans', 'Computer Modern Sans Serif', 'Lucida Grande', 'Verdana', 'Geneva', 'Lucid', 'Arial', 'Helvetica', 'Avant Garde', sans-serif" transform="translate(738.433837 325.991168) rotate(-40)">+0.15</text>
     </g>
    </g>
    <g id="xtick_14">
     <g id="line2d_25">
      <g>
       <use xlink:href="#m719a830903" x="793.689627" y="293.472" style="stroke: #000000; stroke-width: 0.8"/>
      </g>
     </g>
     <g id="text_25">
      <text style="font-size: 10px; font-family: 'DejaVu Sans', 'Bitstream Vera Sans', 'Computer Modern Sans Serif', 'Lucida Grande', 'Verdana', 'Geneva', 'Lucid', 'Arial', 'Helvetica', 'Avant Garde', sans-serif" transform="translate(768.877159 325.991168) rotate(-40)">−0.30</text>
     </g>
    </g>
    <g id="xtick_15">
     <g id="line2d_26">
      <g>
       <use xlink:href="#m719a830903" x="824.132949" y="293.472" style="stroke: #000000; stroke-width: 0.8"/>
      </g>
     </g>
     <g id="text_26">
      <text style="font-size: 10px; font-family: 'DejaVu Sans', 'Bitstream Vera Sans', 'Computer Modern Sans Serif', 'Lucida Grande', 'Verdana', 'Geneva', 'Lucid', 'Arial', 'Helvetica', 'Avant Garde', sans-serif" transform="translate(799.320481 325.991168) rotate(-40)">+0.30</text>
     </g>
    </g>
   </g>
   <g id="matplotlib.axis_4">
    <g id="ytick_7">
     <g id="line2d_27">
      <g>
       <use xlink:href="#m5001b23019" x="524.388" y="293.472" style="stroke: #000000; stroke-width: 0.8"/>
      </g>
     </g>
     <g id="text_27">
      <text style="font-size: 10px; font-family: 'DejaVu Sans', 'Bitstream Vera Sans', 'Computer Modern Sans Serif', 'Lucida Grande', 'Verdana', 'Geneva', 'Lucid', 'Arial', 'Helvetica', 'Avant Garde', sans-serif; text-anchor: end" x="517.388" y="297.271219" transform="rotate(-0 517.388 297.271219)">0</text>
     </g>
    </g>
    <g id="ytick_8">
     <g id="line2d_28">
      <g>
       <use xlink:href="#m5001b23019" x="524.388" y="267.690704" style="stroke: #000000; stroke-width: 0.8"/>
      </g>
     </g>
     <g id="text_28">
      <text style="font-size: 10px; font-family: 'DejaVu Sans', 'Bitstream Vera Sans', 'Computer Modern Sans Serif', 'Lucida Grande', 'Verdana', 'Geneva', 'Lucid', 'Arial', 'Helvetica', 'Avant Garde', sans-serif; text-anchor: end" x="517.388" y="271.489923" transform="rotate(-0 517.388 271.489923)">1</text>
     </g>
    </g>
    <g id="ytick_9">
     <g id="line2d_29">
      <g>
       <use xlink:href="#m5001b23019" x="524.388" y="241.909409" style="stroke: #000000; stroke-width: 0.8"/>
      </g>
     </g>
     <g id="text_29">
      <text style="font-size: 10px; font-family: 'DejaVu Sans', 'Bitstream Vera Sans', 'Computer Modern Sans Serif', 'Lucida Grande', 'Verdana', 'Geneva', 'Lucid', 'Arial', 'Helvetica', 'Avant Garde', sans-serif; text-anchor: end" x="517.388" y="245.708627" transform="rotate(-0 517.388 245.708627)">2</text>
     </g>
    </g>
    <g id="ytick_10">
     <g id="line2d_30">
      <g>
       <use xlink:href="#m5001b23019" x="524.388" y="216.128113" style="stroke: #000000; stroke-width: 0.8"/>
      </g>
     </g>
     <g id="text_30">
      <text style="font-size: 10px; font-family: 'DejaVu Sans', 'Bitstream Vera Sans', 'Computer Modern Sans Serif', 'Lucida Grande', 'Verdana', 'Geneva', 'Lucid', 'Arial', 'Helvetica', 'Avant Garde', sans-serif; text-anchor: end" x="517.388" y="219.927332" transform="rotate(-0 517.388 219.927332)">3</text>
     </g>
    </g>
    <g id="ytick_11">
     <g id="line2d_31">
      <g>
       <use xlink:href="#m5001b23019" x="524.388" y="190.346817" style="stroke: #000000; stroke-width: 0.8"/>
      </g>
     </g>
     <g id="text_31">
      <text style="font-size: 10px; font-family: 'DejaVu Sans', 'Bitstream Vera Sans', 'Computer Modern Sans Serif', 'Lucida Grande', 'Verdana', 'Geneva', 'Lucid', 'Arial', 'Helvetica', 'Avant Garde', sans-serif; text-anchor: end" x="517.388" y="194.146036" transform="rotate(-0 517.388 194.146036)">4</text>
     </g>
    </g>
    <g id="ytick_12">
     <g id="line2d_32">
      <g>
       <use xlink:href="#m5001b23019" x="524.388" y="164.565521" style="stroke: #000000; stroke-width: 0.8"/>
      </g>
     </g>
     <g id="text_32">
      <text style="font-size: 10px; font-family: 'DejaVu Sans', 'Bitstream Vera Sans', 'Computer Modern Sans Serif', 'Lucida Grande', 'Verdana', 'Geneva', 'Lucid', 'Arial', 'Helvetica', 'Avant Garde', sans-serif; text-anchor: end" x="517.388" y="168.36474" transform="rotate(-0 517.388 168.36474)">5</text>
     </g>
    </g>
    <g id="ytick_13">
     <g id="line2d_33">
      <g>
       <use xlink:href="#m5001b23019" x="524.388" y="138.784226" style="stroke: #000000; stroke-width: 0.8"/>
      </g>
     </g>
     <g id="text_33">
      <text style="font-size: 10px; font-family: 'DejaVu Sans', 'Bitstream Vera Sans', 'Computer Modern Sans Serif', 'Lucida Grande', 'Verdana', 'Geneva', 'Lucid', 'Arial', 'Helvetica', 'Avant Garde', sans-serif; text-anchor: end" x="517.388" y="142.583444" transform="rotate(-0 517.388 142.583444)">6</text>
     </g>
    </g>
    <g id="ytick_14">
     <g id="line2d_34">
      <g>
       <use xlink:href="#m5001b23019" x="524.388" y="113.00293" style="stroke: #000000; stroke-width: 0.8"/>
      </g>
     </g>
     <g id="text_34">
      <text style="font-size: 10px; font-family: 'DejaVu Sans', 'Bitstream Vera Sans', 'Computer Modern Sans Serif', 'Lucida Grande', 'Verdana', 'Geneva', 'Lucid', 'Arial', 'Helvetica', 'Avant Garde', sans-serif; text-anchor: end" x="517.388" y="116.802149" transform="rotate(-0 517.388 116.802149)">7</text>
     </g>
    </g>
    <g id="ytick_15">
     <g id="line2d_35">
      <g>
       <use xlink:href="#m5001b23019" x="524.388" y="87.221634" style="stroke: #000000; stroke-width: 0.8"/>
      </g>
     </g>
     <g id="text_35">
      <text style="font-size: 10px; font-family: 'DejaVu Sans', 'Bitstream Vera Sans', 'Computer Modern Sans Serif', 'Lucida Grande', 'Verdana', 'Geneva', 'Lucid', 'Arial', 'Helvetica', 'Avant Garde', sans-serif; text-anchor: end" x="517.388" y="91.020853" transform="rotate(-0 517.388 91.020853)">8</text>
     </g>
    </g>
    <g id="text_36">
     <text style="font-size: 10px; font-family: 'DejaVu Sans', 'Bitstream Vera Sans', 'Computer Modern Sans Serif', 'Lucida Grande', 'Verdana', 'Geneva', 'Lucid', 'Arial', 'Helvetica', 'Avant Garde', sans-serif; text-anchor: middle" x="504.945812" y="178.56" transform="rotate(-90 504.945812 178.56)">Mean raw reward shortfall to tested maximum</text>
    </g>
   </g>
   <g id="patch_26">
    <path d="M 524.388 293.472 
L 524.388 63.648 
" style="fill: none; stroke: #000000; stroke-width: 0.8; stroke-linejoin: miter; stroke-linecap: square"/>
   </g>
   <g id="patch_27">
    <path d="M 524.388 293.472 
L 849.888 293.472 
" style="fill: none; stroke: #000000; stroke-width: 0.8; stroke-linejoin: miter; stroke-linecap: square"/>
   </g>
   <g id="text_37">
    <text style="font-size: 12px; font-family: 'DejaVu Sans', 'Bitstream Vera Sans', 'Computer Modern Sans Serif', 'Lucida Grande', 'Verdana', 'Geneva', 'Lucid', 'Arial', 'Helvetica', 'Avant Garde', sans-serif; text-anchor: middle" x="687.138" y="57.648" transform="rotate(-0 687.138 57.648)">Secondary exploratory: finite tested-bank regret</text>
   </g>
   <g id="legend_2">
    <g id="patch_28">
     <path d="M 732.31425 78.586594 
L 750.31425 78.586594 
L 750.31425 72.286594 
L 732.31425 72.286594 
z
" style="fill: #17618b"/>
    </g>
    <g id="text_38">
     <text style="font-size: 9px; font-family: 'DejaVu Sans', 'Bitstream Vera Sans', 'Computer Modern Sans Serif', 'Lucida Grande', 'Verdana', 'Geneva', 'Lucid', 'Arial', 'Helvetica', 'Avant Garde', sans-serif; text-anchor: start" x="757.51425" y="78.586594" transform="rotate(-0 757.51425 78.586594)">BCA continuation</text>
    </g>
    <g id="patch_29">
     <path d="M 732.31425 91.796906 
L 750.31425 91.796906 
L 750.31425 85.496906 
L 732.31425 85.496906 
z
" style="fill: #a4a4a4"/>
    </g>
    <g id="text_39">
     <text style="font-size: 9px; font-family: 'DejaVu Sans', 'Bitstream Vera Sans', 'Computer Modern Sans Serif', 'Lucida Grande', 'Verdana', 'Geneva', 'Lucid', 'Arial', 'Helvetica', 'Avant Garde', sans-serif; text-anchor: start" x="757.51425" y="91.796906" transform="rotate(-0 757.51425 91.796906)">HOST continuation</text>
    </g>
   </g>
  </g>
  <g id="text_40">
   <text style="font-size: 16px; font-family: 'DejaVu Sans', 'Bitstream Vera Sans', 'Computer Modern Sans Serif', 'Lucida Grande', 'Verdana', 'Geneva', 'Lucid', 'Arial', 'Helvetica', 'Avant Garde', sans-serif; text-anchor: middle" x="466.848" y="19.3575" transform="rotate(-0 466.848 19.3575)">TD3+BC Hopper · separate continuation and tested-bank comparisons</text>
  </g>
  <g id="text_41">
   <text style="font-size: 9px; font-family: 'DejaVu Sans', 'Bitstream Vera Sans', 'Computer Modern Sans Serif', 'Lucida Grande', 'Verdana', 'Geneva', 'Lucid', 'Arial', 'Helvetica', 'Avant Garde', sans-serif; fill: #444444" transform="translate(7.2 385.54785)">Regret = max return among the ten fixed actions − this action’s return, within the same captured state and continuation.</text>
   <text style="font-size: 9px; font-family: 'DejaVu Sans', 'Bitstream Vera Sans', 'Computer Modern Sans Serif', 'Lucida Grande', 'Verdana', 'Geneva', 'Lucid', 'Arial', 'Helvetica', 'Avant Garde', sans-serif; fill: #444444" transform="translate(7.2 395.625881)">Specified after collection, before this readout; not global-optimal Q regret or an out-of-sample oracle guarantee. One seed; no confidence intervals.</text>
  </g>
 </g>
 <defs>
  <clipPath id="pdc7790e6d1">
   <rect x="107.748" y="63.648" width="325.5" height="229.824"/>
  </clipPath>
  <clipPath id="p236b927009">
   <rect x="524.388" y="63.648" width="325.5" height="229.824"/>
  </clipPath>
 </defs>
</svg>
