<?xml version="1.0" encoding="utf-8" standalone="no"?>
<!DOCTYPE svg PUBLIC "-//W3C//DTD SVG 1.1//EN"
  "http://www.w3.org/Graphics/SVG/1.1/DTD/svg11.dtd">
<svg xmlns:xlink="http://www.w3.org/1999/xlink" width="576pt" height="417.6pt" viewBox="0 0 576 417.6" xmlns="http://www.w3.org/2000/svg" version="1.1">
 <metadata>
  <rdf:RDF xmlns:dc="http://purl.org/dc/elements/1.1/" xmlns:cc="http://creativecommons.org/ns#" xmlns:rdf="http://www.w3.org/1999/02/22-rdf-syntax-ns#">
   <cc:Work>
    <dc:type rdf:resource="http://purl.org/dc/dcmitype/StillImage"/>
    <dc:date>2026-09-27T13:47:26.905989</dc:date>
    <dc:format>image/svg+xml</dc:format>
    <dc:creator>
     <cc:Agent>
      <dc:title>Matplotlib v3.10.9, https://matplotlib.org/</dc:title>
     </cc:Agent>
    </dc:creator>
   </cc:Work>
  </rdf:RDF>
 </metadata>
 <defs>
  <style type="text/css">*{stroke-linejoin: round; stroke-linecap: butt}</style>
 </defs>
 <g id="figure_1">
  <g id="patch_1">
   <path d="M 0 417.6 
L 576 417.6 
L 576 0 
L 0 0 
z
" style="fill: #ffffff"/>
  </g>
  <g id="axes_1">
   <g id="patch_2">
    <path d="M 54.4 325.4 
L 556 325.4 
L 556 95.536 
L 54.4 95.536 
z
" style="fill: #ffffff"/>
   </g>
   <g id="FillBetweenPolyCollection_1">
    <defs>
     <path id="mbadfd48ee0" d="M 77.2 -124.070329 
L 77.2 -110.16362 
L 79.491457 -113.748461 
L 81.782915 -117.260675 
L 84.074372 -120.700377 
L 86.365829 -124.00393 
L 88.657286 -127.256324 
L 90.948744 -130.458704 
L 93.240201 -133.475159 
L 95.531658 -136.463684 
L 97.823116 -139.538626 
L 100.114573 -142.457073 
L 102.40603 -145.323284 
L 104.697487 -148.152013 
L 106.988945 -150.900696 
L 109.280402 -153.612721 
L 111.571859 -156.274161 
L 113.863317 -158.853865 
L 116.154774 -161.242059 
L 118.446231 -163.568475 
L 120.737688 -165.834078 
L 123.029146 -168.086141 
L 125.320603 -170.335539 
L 127.61206 -172.526787 
L 129.903518 -174.631367 
L 132.194975 -176.617583 
L 134.486432 -178.497779 
L 136.777889 -180.330357 
L 139.069347 -182.123401 
L 141.360804 -183.87827 
L 143.652261 -185.515104 
L 145.943719 -187.055081 
L 148.235176 -188.642461 
L 150.526633 -190.134148 
L 152.81809 -191.666236 
L 155.109548 -193.107645 
L 157.401005 -194.466491 
L 159.692462 -195.756557 
L 161.98392 -197.018663 
L 164.275377 -198.254643 
L 166.566834 -199.466304 
L 168.858291 -200.655429 
L 171.149749 -201.823766 
L 173.441206 -202.973028 
L 175.732663 -204.104892 
L 178.024121 -205.22099 
L 180.315578 -206.32291 
L 182.607035 -207.412191 
L 184.898492 -208.49032 
L 187.18995 -209.55873 
L 189.481407 -210.525867 
L 191.772864 -211.463266 
L 194.064322 -212.386862 
L 196.355779 -213.298225 
L 198.647236 -214.198882 
L 200.938693 -215.090313 
L 203.230151 -215.973948 
L 205.521608 -216.851165 
L 207.813065 -217.723285 
L 210.104523 -218.591574 
L 212.39598 -219.457234 
L 214.687437 -220.321405 
L 216.978894 -221.185162 
L 219.270352 -222.049512 
L 221.561809 -222.915393 
L 223.853266 -223.783673 
L 226.144724 -224.655147 
L 228.436181 -225.530536 
L 230.727638 -226.410486 
L 233.019095 -227.295569 
L 235.310553 -228.18628 
L 237.60201 -229.083038 
L 239.893467 -229.986184 
L 242.184925 -230.895982 
L 244.476382 -231.812623 
L 246.767839 -232.736217 
L 249.059296 -233.666802 
L 251.350754 -234.604341 
L 253.642211 -235.548722 
L 255.933668 -236.499762 
L 258.225126 -237.457207 
L 260.516583 -238.420735 
L 262.80804 -239.389955 
L 265.099497 -240.364413 
L 267.390955 -241.343592 
L 269.682412 -242.326913 
L 271.973869 -243.313742 
L 274.265327 -244.141016 
L 276.556784 -244.95335 
L 278.848241 -245.768022 
L 281.139698 -246.584747 
L 283.431156 -247.403191 
L 285.722613 -248.222975 
L 288.01407 -249.043677 
L 290.305528 -249.801023 
L 292.596985 -250.555337 
L 294.888442 -251.313799 
L 297.179899 -252.076027 
L 299.471357 -252.84159 
L 301.762814 -253.61001 
L 304.054271 -254.380768 
L 306.345729 -255.257738 
L 308.637186 -256.260304 
L 310.928643 -257.181511 
L 313.220101 -257.974222 
L 315.511558 -258.760227 
L 317.803015 -259.538755 
L 320.094472 -260.309032 
L 322.38593 -261.070276 
L 324.677387 -261.821705 
L 326.968844 -262.562539 
L 329.260302 -263.292001 
L 331.551759 -264.073133 
L 333.843216 -264.84435 
L 336.134673 -265.597184 
L 338.426131 -266.330714 
L 340.717588 -267.044054 
L 343.009045 -267.736353 
L 345.300503 -268.348358 
L 347.59196 -268.951331 
L 349.883417 -269.552964 
L 352.174874 -270.031386 
L 354.466332 -270.495803 
L 356.757789 -271.116194 
L 359.049246 -271.626058 
L 361.340704 -272.122158 
L 363.632161 -272.634295 
L 365.923618 -273.089168 
L 368.215075 -273.559317 
L 370.506533 -274.020069 
L 372.79799 -274.455697 
L 375.089447 -274.724553 
L 377.380905 -274.970537 
L 379.672362 -275.193894 
L 381.963819 -275.431213 
L 384.255276 -275.712659 
L 386.546734 -275.972092 
L 388.838191 -276.190136 
L 391.129648 -276.313108 
L 393.421106 -276.371672 
L 395.712563 -276.409058 
L 398.00402 -276.439788 
L 400.295477 -276.464615 
L 402.586935 -276.420598 
L 404.878392 -276.277482 
L 407.169849 -276.251727 
L 409.461307 -276.116933 
L 411.752764 -276.070683 
L 414.044221 -275.969315 
L 416.335678 -275.817726 
L 418.627136 -275.615639 
L 420.918593 -275.412843 
L 423.21005 -275.210668 
L 425.501508 -275.010434 
L 427.792965 -274.813438 
L 430.084422 -274.620956 
L 432.375879 -274.43424 
L 434.667337 -274.25451 
L 436.958794 -274.082951 
L 439.250251 -273.920715 
L 441.541709 -273.768911 
L 443.833166 -273.628605 
L 446.124623 -273.500819 
L 448.41608 -273.304406 
L 450.707538 -273.089677 
L 452.998995 -272.882157 
L 455.290452 -272.683029 
L 457.58191 -272.493446 
L 459.873367 -272.314516 
L 462.164824 -272.147307 
L 464.456281 -271.992842 
L 466.747739 -271.852095 
L 469.039196 -271.725988 
L 471.330653 -271.615389 
L 473.622111 -271.521109 
L 475.913568 -271.4439 
L 478.205025 -271.384455 
L 480.496482 -271.343401 
L 482.78794 -271.321301 
L 485.079397 -271.318652 
L 487.370854 -271.335884 
L 489.662312 -271.373356 
L 491.953769 -271.431358 
L 494.245226 -271.510108 
L 496.536683 -271.609756 
L 498.828141 -271.730375 
L 501.119598 -271.871972 
L 503.411055 -272.034478 
L 505.702513 -272.217755 
L 507.99397 -272.421594 
L 510.285427 -272.645715 
L 512.576884 -272.88977 
L 514.868342 -273.153342 
L 517.159799 -273.435949 
L 519.451256 -273.737045 
L 521.742714 -274.056017 
L 524.034171 -274.392195 
L 526.325628 -274.744849 
L 528.617085 -275.113193 
L 530.908543 -275.496384 
L 533.2 -275.748657 
L 533.2 -304.264407 
L 533.2 -304.264407 
L 530.908543 -304.15916 
L 528.617085 -304.027228 
L 526.325628 -303.868728 
L 524.034171 -303.683852 
L 521.742714 -303.47287 
L 519.451256 -303.388116 
L 517.159799 -303.469199 
L 514.868342 -303.532354 
L 512.576884 -303.577062 
L 510.285427 -303.56394 
L 507.99397 -303.309691 
L 505.702513 -303.032443 
L 503.411055 -302.732703 
L 501.119598 -302.411039 
L 498.828141 -302.06808 
L 496.536683 -301.704517 
L 494.245226 -301.321093 
L 491.953769 -300.918609 
L 489.662312 -300.532947 
L 487.370854 -300.274743 
L 485.079397 -299.999513 
L 482.78794 -299.707694 
L 480.496482 -299.178123 
L 478.205025 -298.937062 
L 475.913568 -298.677068 
L 473.622111 -298.38473 
L 471.330653 -298.017968 
L 469.039196 -297.638085 
L 466.747739 -297.245783 
L 464.456281 -296.841794 
L 462.164824 -296.426877 
L 459.873367 -296.001814 
L 457.58191 -295.567411 
L 455.290452 -295.124493 
L 452.998995 -294.6739 
L 450.707538 -294.216489 
L 448.41608 -293.753125 
L 446.124623 -293.284682 
L 443.833166 -292.81204 
L 441.541709 -292.336081 
L 439.250251 -291.857687 
L 436.958794 -291.377735 
L 434.667337 -290.897097 
L 432.375879 -290.402868 
L 430.084422 -289.853409 
L 427.792965 -289.310407 
L 425.501508 -288.77488 
L 423.21005 -288.247813 
L 420.918593 -287.73015 
L 418.627136 -287.236254 
L 416.335678 -286.800419 
L 414.044221 -286.354656 
L 411.752764 -285.907312 
L 409.461307 -285.521164 
L 407.169849 -285.12922 
L 404.878392 -284.707498 
L 402.586935 -284.211444 
L 400.295477 -283.838075 
L 398.00402 -283.529315 
L 395.712563 -283.124411 
L 393.421106 -282.718142 
L 391.129648 -282.310895 
L 388.838191 -281.96733 
L 386.546734 -281.734954 
L 384.255276 -281.514946 
L 381.963819 -281.307049 
L 379.672362 -281.044737 
L 377.380905 -280.757777 
L 375.089447 -280.482361 
L 372.79799 -280.266779 
L 370.506533 -280.109195 
L 368.215075 -280.012889 
L 365.923618 -279.913286 
L 363.632161 -279.809611 
L 361.340704 -279.701083 
L 359.049246 -279.703141 
L 356.757789 -279.693833 
L 354.466332 -279.673751 
L 352.174874 -279.622254 
L 349.883417 -279.541362 
L 347.59196 -279.497011 
L 345.300503 -279.51823 
L 343.009045 -279.549748 
L 340.717588 -279.570656 
L 338.426131 -279.579563 
L 336.134673 -279.575093 
L 333.843216 -279.55588 
L 331.551759 -279.520584 
L 329.260302 -279.467884 
L 326.968844 -279.396489 
L 324.677387 -279.305135 
L 322.38593 -279.192597 
L 320.094472 -279.057681 
L 317.803015 -278.899239 
L 315.511558 -278.722043 
L 313.220101 -278.622186 
L 310.928643 -278.50394 
L 308.637186 -278.365981 
L 306.345729 -278.207016 
L 304.054271 -278.025786 
L 301.762814 -277.821064 
L 299.471357 -277.591667 
L 297.179899 -277.336451 
L 294.888442 -277.054317 
L 292.596985 -276.744216 
L 290.305528 -276.405148 
L 288.01407 -276.028839 
L 285.722613 -275.555303 
L 283.431156 -275.046149 
L 281.139698 -274.50084 
L 278.848241 -273.918913 
L 276.556784 -273.299977 
L 274.265327 -272.643713 
L 271.973869 -271.949878 
L 269.682412 -271.2183 
L 267.390955 -270.448883 
L 265.099497 -269.641602 
L 262.80804 -268.796504 
L 260.516583 -268.032704 
L 258.225126 -267.454838 
L 255.933668 -266.846749 
L 253.642211 -266.207681 
L 251.350754 -265.523183 
L 249.059296 -264.559736 
L 246.767839 -263.559946 
L 244.476382 -262.524066 
L 242.184925 -261.452404 
L 239.893467 -260.345326 
L 237.60201 -259.203253 
L 235.310553 -258.026657 
L 233.019095 -256.816059 
L 230.727638 -255.589545 
L 228.436181 -254.492528 
L 226.144724 -253.362736 
L 223.853266 -252.200306 
L 221.561809 -250.775548 
L 219.270352 -249.631233 
L 216.978894 -248.451035 
L 214.687437 -247.228276 
L 212.39598 -245.906006 
L 210.104523 -244.552664 
L 207.813065 -243.168616 
L 205.521608 -241.754249 
L 203.230151 -240.309973 
L 200.938693 -238.836215 
L 198.647236 -237.333419 
L 196.355779 -235.802041 
L 194.064322 -234.242547 
L 191.772864 -232.65541 
L 189.481407 -231.041109 
L 187.18995 -229.400121 
L 184.898492 -227.732923 
L 182.607035 -226.039989 
L 180.315578 -224.321781 
L 178.024121 -222.578754 
L 175.732663 -220.811346 
L 173.441206 -219.013264 
L 171.149749 -217.127881 
L 168.858291 -215.223894 
L 166.566834 -213.301858 
L 164.275377 -211.362288 
L 161.98392 -209.405647 
L 159.692462 -207.43877 
L 157.401005 -205.511654 
L 155.109548 -203.546656 
L 152.81809 -201.544285 
L 150.526633 -199.580996 
L 148.235176 -197.582852 
L 145.943719 -195.534101 
L 143.652261 -193.369804 
L 141.360804 -191.279445 
L 139.069347 -189.245324 
L 136.777889 -187.081916 
L 134.486432 -184.87989 
L 132.194975 -182.643282 
L 129.903518 -180.419697 
L 127.61206 -178.28764 
L 125.320603 -176.132486 
L 123.029146 -173.953325 
L 120.737688 -171.69293 
L 118.446231 -169.360407 
L 116.154774 -167.001227 
L 113.863317 -164.653492 
L 111.571859 -162.328182 
L 109.280402 -160.030532 
L 106.988945 -157.68851 
L 104.697487 -155.300573 
L 102.40603 -152.865155 
L 100.114573 -150.479392 
L 97.823116 -148.071119 
L 95.531658 -145.568145 
L 93.240201 -143.030912 
L 90.948744 -140.391647 
L 88.657286 -137.748782 
L 86.365829 -135.111487 
L 84.074372 -132.444916 
L 81.782915 -129.717423 
L 79.491457 -126.926675 
L 77.2 -124.070329 
z
" style="stroke: #236fa1; stroke-opacity: 0.15"/>
    </defs>
    <g clip-path="url(#p18648653ca)">
     <use xlink:href="#mbadfd48ee0" x="0" y="417.6" style="fill: #236fa1; fill-opacity: 0.15; stroke: #236fa1; stroke-opacity: 0.15"/>
    </g>
   </g>
   <g id="FillBetweenPolyCollection_2">
    <defs>
     <path id="m3c1d7ce928" d="M 77.2 -133.111953 
L 77.2 -119.324462 
L 79.491457 -122.994684 
L 81.782915 -126.303231 
L 84.074372 -129.431376 
L 86.365829 -132.512246 
L 88.657286 -135.546884 
L 90.948744 -138.536282 
L 93.240201 -141.481387 
L 95.531658 -144.383096 
L 97.823116 -147.242264 
L 100.114573 -150.059697 
L 102.40603 -152.651231 
L 104.697487 -155.144078 
L 106.988945 -157.60563 
L 109.280402 -160.037123 
L 111.571859 -162.439729 
L 113.863317 -164.814551 
L 116.154774 -167.162626 
L 118.446231 -169.484923 
L 120.737688 -171.573145 
L 123.029146 -173.712203 
L 125.320603 -175.790795 
L 127.61206 -177.81691 
L 129.903518 -179.828218 
L 132.194975 -181.825776 
L 134.486432 -183.810558 
L 136.777889 -185.783446 
L 139.069347 -187.653069 
L 141.360804 -189.377658 
L 143.652261 -191.090149 
L 145.943719 -192.791701 
L 148.235176 -194.483388 
L 150.526633 -196.061817 
L 152.81809 -197.612326 
L 155.109548 -199.152626 
L 157.401005 -200.851402 
L 159.692462 -202.402963 
L 161.98392 -203.794527 
L 164.275377 -205.178316 
L 166.566834 -206.555452 
L 168.858291 -207.926981 
L 171.149749 -209.293866 
L 173.441206 -210.65699 
L 175.732663 -212.017152 
L 178.024121 -213.375071 
L 180.315578 -214.731381 
L 182.607035 -216.086634 
L 184.898492 -217.303831 
L 187.18995 -218.444919 
L 189.481407 -219.584559 
L 191.772864 -220.723587 
L 194.064322 -221.752887 
L 196.355779 -222.778602 
L 198.647236 -223.80288 
L 200.938693 -224.945389 
L 203.230151 -226.079898 
L 205.521608 -226.990441 
L 207.813065 -227.901242 
L 210.104523 -228.813202 
L 212.39598 -229.727144 
L 214.687437 -230.643813 
L 216.978894 -231.563878 
L 219.270352 -232.48793 
L 221.561809 -233.416479 
L 223.853266 -234.349961 
L 226.144724 -235.288729 
L 228.436181 -236.075253 
L 230.727638 -236.831735 
L 233.019095 -237.592923 
L 235.310553 -238.359449 
L 237.60201 -239.13187 
L 239.893467 -239.910665 
L 242.184925 -240.696238 
L 244.476382 -241.488915 
L 246.767839 -242.288946 
L 249.059296 -243.096506 
L 251.350754 -243.911694 
L 253.642211 -244.734534 
L 255.933668 -245.564979 
L 258.225126 -246.402908 
L 260.516583 -247.248132 
L 262.80804 -248.100392 
L 265.099497 -248.959363 
L 267.390955 -249.824656 
L 269.682412 -250.695821 
L 271.973869 -251.572345 
L 274.265327 -252.453662 
L 276.556784 -253.33915 
L 278.848241 -254.228135 
L 281.139698 -255.119898 
L 283.431156 -256.013672 
L 285.722613 -256.90865 
L 288.01407 -257.803987 
L 290.305528 -258.698802 
L 292.596985 -259.592185 
L 294.888442 -260.409177 
L 297.179899 -261.145917 
L 299.471357 -261.882236 
L 301.762814 -262.603885 
L 304.054271 -263.280042 
L 306.345729 -263.958681 
L 308.637186 -264.639307 
L 310.928643 -265.321387 
L 313.220101 -266.004353 
L 315.511558 -266.687604 
L 317.803015 -267.370511 
L 320.094472 -268.052418 
L 322.38593 -268.732643 
L 324.677387 -269.535818 
L 326.968844 -270.363078 
L 329.260302 -271.136062 
L 331.551759 -271.799668 
L 333.843216 -272.452871 
L 336.134673 -273.094983 
L 338.426131 -273.725328 
L 340.717588 -274.343247 
L 343.009045 -274.948099 
L 345.300503 -275.539262 
L 347.59196 -276.11614 
L 349.883417 -276.696001 
L 352.174874 -277.274453 
L 354.466332 -277.83221 
L 356.757789 -278.368725 
L 359.049246 -278.883501 
L 361.340704 -279.376095 
L 363.632161 -279.846117 
L 365.923618 -280.35401 
L 368.215075 -280.846452 
L 370.506533 -281.322525 
L 372.79799 -281.679161 
L 375.089447 -281.996134 
L 377.380905 -282.297877 
L 379.672362 -282.584494 
L 381.963819 -282.856123 
L 384.255276 -283.099093 
L 386.546734 -283.33983 
L 388.838191 -283.582938 
L 391.129648 -283.808039 
L 393.421106 -284.026998 
L 395.712563 -284.227697 
L 398.00402 -284.410437 
L 400.295477 -284.516541 
L 402.586935 -284.574192 
L 404.878392 -284.584631 
L 407.169849 -284.584334 
L 409.461307 -284.574277 
L 411.752764 -284.555456 
L 414.044221 -284.51426 
L 416.335678 -284.452123 
L 418.627136 -284.379769 
L 420.918593 -284.298355 
L 423.21005 -284.209052 
L 425.501508 -284.113052 
L 427.792965 -284.011554 
L 430.084422 -283.905766 
L 432.375879 -283.796902 
L 434.667337 -283.686172 
L 436.958794 -283.574787 
L 439.250251 -283.463948 
L 441.541709 -283.354846 
L 443.833166 -283.248656 
L 446.124623 -283.146535 
L 448.41608 -283.049619 
L 450.707538 -282.959016 
L 452.998995 -282.875807 
L 455.290452 -282.80104 
L 457.58191 -282.735726 
L 459.873367 -282.680837 
L 462.164824 -282.637303 
L 464.456281 -282.60601 
L 466.747739 -282.587794 
L 469.039196 -282.58344 
L 471.330653 -282.593683 
L 473.622111 -282.619199 
L 475.913568 -282.660607 
L 478.205025 -282.718467 
L 480.496482 -282.793277 
L 482.78794 -282.885471 
L 485.079397 -282.99542 
L 487.370854 -283.123427 
L 489.662312 -283.269728 
L 491.953769 -283.434493 
L 494.245226 -283.617822 
L 496.536683 -283.819747 
L 498.828141 -284.04023 
L 501.119598 -284.279164 
L 503.411055 -284.536374 
L 505.702513 -284.811616 
L 507.99397 -285.104579 
L 510.285427 -285.379236 
L 512.576884 -285.546877 
L 514.868342 -285.719113 
L 517.159799 -285.822683 
L 519.451256 -285.941299 
L 521.742714 -286.075099 
L 524.034171 -286.224171 
L 526.325628 -286.388544 
L 528.617085 -286.568196 
L 530.908543 -286.763049 
L 533.2 -286.97297 
L 533.2 -307.102098 
L 533.2 -307.102098 
L 530.908543 -307.202677 
L 528.617085 -307.280678 
L 526.325628 -307.335793 
L 524.034171 -307.367784 
L 521.742714 -307.376481 
L 519.451256 -307.361784 
L 517.159799 -307.32366 
L 514.868342 -307.262147 
L 512.576884 -307.095919 
L 510.285427 -306.896817 
L 507.99397 -306.674357 
L 505.702513 -306.429149 
L 503.411055 -306.161866 
L 501.119598 -305.873242 
L 498.828141 -305.564068 
L 496.536683 -305.235189 
L 494.245226 -305.026591 
L 491.953769 -304.974202 
L 489.662312 -304.902955 
L 487.370854 -304.802784 
L 485.079397 -304.469967 
L 482.78794 -304.120831 
L 480.496482 -303.756272 
L 478.205025 -303.377222 
L 475.913568 -302.984647 
L 473.622111 -302.579546 
L 471.330653 -302.162942 
L 469.039196 -301.815039 
L 466.747739 -301.513905 
L 464.456281 -301.200803 
L 462.164824 -300.742643 
L 459.873367 -300.458103 
L 457.58191 -300.159241 
L 455.290452 -299.84222 
L 452.998995 -299.479602 
L 450.707538 -299.109286 
L 448.41608 -298.732041 
L 446.124623 -298.348647 
L 443.833166 -297.959888 
L 441.541709 -297.566553 
L 439.250251 -297.169432 
L 436.958794 -296.769312 
L 434.667337 -296.366976 
L 432.375879 -295.9632 
L 430.084422 -295.558749 
L 427.792965 -295.154375 
L 425.501508 -294.750813 
L 423.21005 -294.348782 
L 420.918593 -293.948977 
L 418.627136 -293.552073 
L 416.335678 -293.132159 
L 414.044221 -292.699914 
L 411.752764 -292.268595 
L 409.461307 -291.838951 
L 407.169849 -291.411705 
L 404.878392 -290.98756 
L 402.586935 -290.567186 
L 400.295477 -290.186746 
L 398.00402 -289.901514 
L 395.712563 -289.621116 
L 393.421106 -289.345598 
L 391.129648 -289.074971 
L 388.838191 -288.809211 
L 386.546734 -288.548255 
L 384.255276 -288.292009 
L 381.963819 -288.0192 
L 379.672362 -287.741284 
L 377.380905 -287.472034 
L 375.089447 -287.211329 
L 372.79799 -287.075547 
L 370.506533 -286.867897 
L 368.215075 -286.760774 
L 365.923618 -286.670557 
L 363.632161 -286.576512 
L 361.340704 -286.484313 
L 359.049246 -286.392992 
L 356.757789 -286.339939 
L 354.466332 -286.298905 
L 352.174874 -286.252079 
L 349.883417 -286.198186 
L 347.59196 -286.135946 
L 345.300503 -286.064076 
L 343.009045 -285.9813 
L 340.717588 -285.886344 
L 338.426131 -285.777946 
L 336.134673 -285.654858 
L 333.843216 -285.51585 
L 331.551759 -285.378 
L 329.260302 -285.270036 
L 326.968844 -285.150963 
L 324.677387 -285.019467 
L 322.38593 -284.87424 
L 320.094472 -284.713984 
L 317.803015 -284.537416 
L 315.511558 -284.343268 
L 313.220101 -284.130293 
L 310.928643 -283.897269 
L 308.637186 -283.643 
L 306.345729 -283.366323 
L 304.054271 -283.066109 
L 301.762814 -282.741264 
L 299.471357 -282.343518 
L 297.179899 -281.901509 
L 294.888442 -281.427806 
L 292.596985 -280.921682 
L 290.305528 -280.382475 
L 288.01407 -279.809589 
L 285.722613 -279.202495 
L 283.431156 -278.560735 
L 281.139698 -277.883919 
L 278.848241 -277.17173 
L 276.556784 -276.491046 
L 274.265327 -276.015102 
L 271.973869 -275.513631 
L 269.682412 -274.985695 
L 267.390955 -274.315695 
L 265.099497 -273.488649 
L 262.80804 -272.626437 
L 260.516583 -271.728995 
L 258.225126 -270.796325 
L 255.933668 -269.828494 
L 253.642211 -268.82563 
L 251.350754 -267.787924 
L 249.059296 -266.910156 
L 246.767839 -266.08759 
L 244.476382 -265.155387 
L 242.184925 -264.003456 
L 239.893467 -262.982022 
L 237.60201 -261.928499 
L 235.310553 -260.842913 
L 233.019095 -259.725332 
L 230.727638 -258.575867 
L 228.436181 -257.39467 
L 226.144724 -256.181933 
L 223.853266 -254.937887 
L 221.561809 -253.662799 
L 219.270352 -252.356971 
L 216.978894 -251.020737 
L 214.687437 -249.654464 
L 212.39598 -248.258545 
L 210.104523 -246.833402 
L 207.813065 -245.379478 
L 205.521608 -243.897241 
L 203.230151 -242.387173 
L 200.938693 -240.849776 
L 198.647236 -239.285564 
L 196.355779 -237.695062 
L 194.064322 -236.078801 
L 191.772864 -234.438526 
L 189.481407 -233.02046 
L 187.18995 -231.431677 
L 184.898492 -229.678868 
L 182.607035 -228.036874 
L 180.315578 -226.367519 
L 178.024121 -225.112389 
L 175.732663 -223.640554 
L 173.441206 -221.942915 
L 171.149749 -220.436437 
L 168.858291 -218.891869 
L 166.566834 -217.308599 
L 164.275377 -215.686033 
L 161.98392 -214.023595 
L 159.692462 -212.320727 
L 157.401005 -210.576885 
L 155.109548 -208.874436 
L 152.81809 -207.292377 
L 150.526633 -205.661935 
L 148.235176 -203.981958 
L 145.943719 -202.251325 
L 143.652261 -200.468948 
L 141.360804 -198.633773 
L 139.069347 -196.790874 
L 136.777889 -195.066898 
L 134.486432 -193.197303 
L 132.194975 -191.313441 
L 129.903518 -189.411132 
L 127.61206 -187.445137 
L 125.320603 -185.414093 
L 123.029146 -183.316693 
L 120.737688 -181.151687 
L 118.446231 -179.044678 
L 116.154774 -176.965571 
L 113.863317 -174.819838 
L 111.571859 -172.605862 
L 109.280402 -170.322075 
L 106.988945 -168.02158 
L 104.697487 -165.71576 
L 102.40603 -163.340027 
L 100.114573 -160.826607 
L 97.823116 -158.128739 
L 95.531658 -155.66038 
L 93.240201 -153.118342 
L 90.948744 -150.500784 
L 88.657286 -147.805906 
L 86.365829 -145.031953 
L 84.074372 -142.177217 
L 81.782915 -139.240037 
L 79.491457 -136.218803 
L 77.2 -133.111953 
z
" style="stroke: #ce6320; stroke-opacity: 0.15"/>
    </defs>
    <g clip-path="url(#p18648653ca)">
     <use xlink:href="#m3c1d7ce928" x="0" y="417.6" style="fill: #ce6320; fill-opacity: 0.15; stroke: #ce6320; stroke-opacity: 0.15"/>
    </g>
   </g>
   <g id="matplotlib.axis_1">
    <g id="xtick_1">
     <g id="line2d_1">
      <path d="M 74.908543 325.4 
L 74.908543 95.536 
" clip-path="url(#p18648653ca)" style="fill: none; stroke: #b0b0b0; stroke-opacity: 0.18; stroke-width: 0.8; stroke-linecap: square"/>
     </g>
     <g id="line2d_2">
      <defs>
       <path id="mc112c7abe6" d="M 0 0 
L 0 3.5 
" style="stroke: #000000; stroke-width: 0.8"/>
      </defs>
      <g>
       <use xlink:href="#mc112c7abe6" x="74.908543" y="325.4" style="stroke: #000000; stroke-width: 0.8"/>
      </g>
     </g>
     <g id="text_1">
      <text style="font-size: 9px; font-family: 'DejaVu Sans'; text-anchor: middle" x="74.908543" y="339.238594" transform="rotate(-0 74.908543 339.238594)">0.0</text>
     </g>
    </g>
    <g id="xtick_2">
     <g id="line2d_3">
      <path d="M 166.566834 325.4 
L 166.566834 95.536 
" clip-path="url(#p18648653ca)" style="fill: none; stroke: #b0b0b0; stroke-opacity: 0.18; stroke-width: 0.8; stroke-linecap: square"/>
     </g>
     <g id="line2d_4">
      <g>
       <use xlink:href="#mc112c7abe6" x="166.566834" y="325.4" style="stroke: #000000; stroke-width: 0.8"/>
      </g>
     </g>
     <g id="text_2">
      <text style="font-size: 9px; font-family: 'DejaVu Sans'; text-anchor: middle" x="166.566834" y="339.238594" transform="rotate(-0 166.566834 339.238594)">0.2</text>
     </g>
    </g>
    <g id="xtick_3">
     <g id="line2d_5">
      <path d="M 258.225126 325.4 
L 258.225126 95.536 
" clip-path="url(#p18648653ca)" style="fill: none; stroke: #b0b0b0; stroke-opacity: 0.18; stroke-width: 0.8; stroke-linecap: square"/>
     </g>
     <g id="line2d_6">
      <g>
       <use xlink:href="#mc112c7abe6" x="258.225126" y="325.4" style="stroke: #000000; stroke-width: 0.8"/>
      </g>
     </g>
     <g id="text_3">
      <text style="font-size: 9px; font-family: 'DejaVu Sans'; text-anchor: middle" x="258.225126" y="339.238594" transform="rotate(-0 258.225126 339.238594)">0.4</text>
     </g>
    </g>
    <g id="xtick_4">
     <g id="line2d_7">
      <path d="M 349.883417 325.4 
L 349.883417 95.536 
" clip-path="url(#p18648653ca)" style="fill: none; stroke: #b0b0b0; stroke-opacity: 0.18; stroke-width: 0.8; stroke-linecap: square"/>
     </g>
     <g id="line2d_8">
      <g>
       <use xlink:href="#mc112c7abe6" x="349.883417" y="325.4" style="stroke: #000000; stroke-width: 0.8"/>
      </g>
     </g>
     <g id="text_4">
      <text style="font-size: 9px; font-family: 'DejaVu Sans'; text-anchor: middle" x="349.883417" y="339.238594" transform="rotate(-0 349.883417 339.238594)">0.6</text>
     </g>
    </g>
    <g id="xtick_5">
     <g id="line2d_9">
      <path d="M 441.541709 325.4 
L 441.541709 95.536 
" clip-path="url(#p18648653ca)" style="fill: none; stroke: #b0b0b0; stroke-opacity: 0.18; stroke-width: 0.8; stroke-linecap: square"/>
     </g>
     <g id="line2d_10">
      <g>
       <use xlink:href="#mc112c7abe6" x="441.541709" y="325.4" style="stroke: #000000; stroke-width: 0.8"/>
      </g>
     </g>
     <g id="text_5">
      <text style="font-size: 9px; font-family: 'DejaVu Sans'; text-anchor: middle" x="441.541709" y="339.238594" transform="rotate(-0 441.541709 339.238594)">0.8</text>
     </g>
    </g>
    <g id="xtick_6">
     <g id="line2d_11">
      <path d="M 533.2 325.4 
L 533.2 95.536 
" clip-path="url(#p18648653ca)" style="fill: none; stroke: #b0b0b0; stroke-opacity: 0.18; stroke-width: 0.8; stroke-linecap: square"/>
     </g>
     <g id="line2d_12">
      <g>
       <use xlink:href="#mc112c7abe6" x="533.2" y="325.4" style="stroke: #000000; stroke-width: 0.8"/>
      </g>
     </g>
     <g id="text_6">
      <text style="font-size: 9px; font-family: 'DejaVu Sans'; text-anchor: middle" x="533.2" y="339.238594" transform="rotate(-0 533.2 339.238594)">1.0</text>
     </g>
    </g>
    <g id="text_7">
     <text style="font-size: 10px; font-family: 'DejaVu Sans'; text-anchor: middle" x="305.2" y="352.70875" transform="rotate(-0 305.2 352.70875)">Host/critic updates</text>
    </g>
    <g id="text_8">
     <text style="font-size: 10px; font-family: 'DejaVu Sans'; text-anchor: end" x="556" y="351.70875" transform="rotate(-0 556 351.70875)">1e6</text>
    </g>
   </g>
   <g id="matplotlib.axis_2">
    <g id="ytick_1">
     <g id="line2d_13">
      <path d="M 54.4 308.787055 
L 556 308.787055 
" clip-path="url(#p18648653ca)" style="fill: none; stroke: #b0b0b0; stroke-opacity: 0.18; stroke-width: 0.8; stroke-linecap: square"/>
     </g>
     <g id="line2d_14">
      <defs>
       <path id="m9b7551dd6d" d="M 0 0 
L -3.5 0 
" style="stroke: #000000; stroke-width: 0.8"/>
      </defs>
      <g>
       <use xlink:href="#m9b7551dd6d" x="54.4" y="308.787055" style="stroke: #000000; stroke-width: 0.8"/>
      </g>
     </g>
     <g id="text_9">
      <text style="font-size: 9px; font-family: 'DejaVu Sans'; text-anchor: end" x="47.4" y="312.206352" transform="rotate(-0 47.4 312.206352)">−5</text>
     </g>
    </g>
    <g id="ytick_2">
     <g id="line2d_15">
      <path d="M 54.4 258.603812 
L 556 258.603812 
" clip-path="url(#p18648653ca)" style="fill: none; stroke: #b0b0b0; stroke-opacity: 0.18; stroke-width: 0.8; stroke-linecap: square"/>
     </g>
     <g id="line2d_16">
      <g>
       <use xlink:href="#m9b7551dd6d" x="54.4" y="258.603812" style="stroke: #000000; stroke-width: 0.8"/>
      </g>
     </g>
     <g id="text_10">
      <text style="font-size: 9px; font-family: 'DejaVu Sans'; text-anchor: end" x="47.4" y="262.023109" transform="rotate(-0 47.4 262.023109)">0</text>
     </g>
    </g>
    <g id="ytick_3">
     <g id="line2d_17">
      <path d="M 54.4 208.420569 
L 556 208.420569 
" clip-path="url(#p18648653ca)" style="fill: none; stroke: #b0b0b0; stroke-opacity: 0.18; stroke-width: 0.8; stroke-linecap: square"/>
     </g>
     <g id="line2d_18">
      <g>
       <use xlink:href="#m9b7551dd6d" x="54.4" y="208.420569" style="stroke: #000000; stroke-width: 0.8"/>
      </g>
     </g>
     <g id="text_11">
      <text style="font-size: 9px; font-family: 'DejaVu Sans'; text-anchor: end" x="47.4" y="211.839866" transform="rotate(-0 47.4 211.839866)">5</text>
     </g>
    </g>
    <g id="ytick_4">
     <g id="line2d_19">
      <path d="M 54.4 158.237326 
L 556 158.237326 
" clip-path="url(#p18648653ca)" style="fill: none; stroke: #b0b0b0; stroke-opacity: 0.18; stroke-width: 0.8; stroke-linecap: square"/>
     </g>
     <g id="line2d_20">
      <g>
       <use xlink:href="#m9b7551dd6d" x="54.4" y="158.237326" style="stroke: #000000; stroke-width: 0.8"/>
      </g>
     </g>
     <g id="text_12">
      <text style="font-size: 9px; font-family: 'DejaVu Sans'; text-anchor: end" x="47.4" y="161.656623" transform="rotate(-0 47.4 161.656623)">10</text>
     </g>
    </g>
    <g id="ytick_5">
     <g id="line2d_21">
      <path d="M 54.4 108.054083 
L 556 108.054083 
" clip-path="url(#p18648653ca)" style="fill: none; stroke: #b0b0b0; stroke-opacity: 0.18; stroke-width: 0.8; stroke-linecap: square"/>
     </g>
     <g id="line2d_22">
      <g>
       <use xlink:href="#m9b7551dd6d" x="54.4" y="108.054083" style="stroke: #000000; stroke-width: 0.8"/>
      </g>
     </g>
     <g id="text_13">
      <text style="font-size: 9px; font-family: 'DejaVu Sans'; text-anchor: end" x="47.4" y="111.473379" transform="rotate(-0 47.4 111.473379)">15</text>
     </g>
    </g>
    <g id="text_14">
     <text style="font-size: 10px; font-family: 'DejaVu Sans'; text-anchor: middle" x="28.052344" y="210.468" transform="rotate(-90 28.052344 210.468)">Illustrative normalized return</text>
    </g>
   </g>
   <g id="line2d_23">
    <path d="M 77.2 314.951636 
L 84.074372 303.713073 
L 90.948744 293.053728 
L 95.531658 286.277316 
L 100.114573 279.770046 
L 104.697487 273.535969 
L 109.280402 267.578538 
L 113.863317 261.900462 
L 118.446231 256.503579 
L 123.029146 251.388741 
L 127.61206 246.555705 
L 132.194975 242.00306 
L 136.777889 237.728154 
L 141.360804 233.727046 
L 145.943719 229.99448 
L 150.526633 226.523873 
L 155.109548 223.307325 
L 159.692462 220.335645 
L 164.275377 217.598399 
L 168.858291 215.083976 
L 173.441206 212.779662 
L 178.024121 210.671745 
L 182.607035 208.745622 
L 189.481407 206.163505 
L 196.355779 203.90132 
L 203.230151 201.902632 
L 210.104523 200.11014 
L 219.270352 197.942722 
L 253.642211 190.101698 
L 262.80804 187.648494 
L 271.973869 184.924972 
L 281.139698 181.91062 
L 290.305528 178.610254 
L 299.471357 175.053001 
L 310.928643 170.325147 
L 347.59196 154.875084 
L 356.757789 151.436475 
L 363.632161 149.089009 
L 370.506533 146.97837 
L 377.380905 145.133889 
L 384.255276 143.579101 
L 391.129648 142.331001 
L 398.00402 141.399494 
L 404.878392 140.787045 
L 411.752764 140.488541 
L 418.627136 140.49136 
L 425.501508 140.775659 
L 432.375879 141.314861 
L 439.250251 142.076338 
L 448.41608 143.371382 
L 459.873367 145.296156 
L 485.079397 149.713448 
L 494.245226 151.042175 
L 501.119598 151.8462 
L 507.99397 152.448675 
L 514.868342 152.823304 
L 521.742714 152.950624 
L 528.617085 152.818517 
L 533.2 152.583795 
L 533.2 152.583795 
" clip-path="url(#p18648653ca)" style="fill: none; stroke: #236fa1; stroke-opacity: 0.28; stroke-width: 0.8; stroke-linecap: square"/>
   </g>
   <g id="line2d_24">
    <path d="M 77.2 299.749655 
L 81.782915 292.806959 
L 86.365829 286.212526 
L 90.948744 279.962527 
L 95.531658 274.051981 
L 100.114573 268.474705 
L 104.697487 263.22328 
L 109.280402 258.289039 
L 113.863317 253.662074 
L 118.446231 249.331259 
L 123.029146 245.284297 
L 127.61206 241.507776 
L 132.194975 237.987255 
L 136.777889 234.707352 
L 141.360804 231.651855 
L 145.943719 228.803847 
L 150.526633 226.145834 
L 157.401005 222.475772 
L 164.275377 219.131314 
L 171.149749 216.050758 
L 180.315578 212.249304 
L 191.772864 207.798285 
L 216.978894 198.126413 
L 228.436181 193.415885 
L 237.60201 189.417465 
L 246.767839 185.204977 
L 258.225126 179.667725 
L 271.973869 172.743503 
L 294.888442 161.169158 
L 304.054271 156.792224 
L 310.928643 153.693719 
L 317.803015 150.796251 
L 324.677387 148.135475 
L 331.551759 145.742898 
L 338.426131 143.644879 
L 345.300503 141.86177 
L 352.174874 140.407238 
L 359.049246 139.287779 
L 365.923618 138.502426 
L 372.79799 138.042685 
L 379.672362 137.892672 
L 386.546734 138.029465 
L 393.421106 138.42366 
L 400.295477 139.0401 
L 409.461307 140.138022 
L 420.918593 141.804936 
L 443.833166 145.285113 
L 452.998995 146.428399 
L 459.873367 147.102085 
L 466.747739 147.581265 
L 473.622111 147.839261 
L 480.496482 147.856251 
L 487.370854 147.619777 
L 494.245226 147.12505 
L 501.119598 146.375056 
L 507.99397 145.38043 
L 514.868342 144.159138 
L 521.742714 142.735946 
L 530.908543 140.578384 
L 533.2 140.001475 
L 533.2 140.001475 
" clip-path="url(#p18648653ca)" style="fill: none; stroke: #236fa1; stroke-opacity: 0.28; stroke-width: 0.8; stroke-linecap: square"/>
   </g>
   <g id="line2d_25">
    <path d="M 77.2 292.577335 
L 81.782915 286.702515 
L 86.365829 281.164597 
L 90.948744 275.946722 
L 95.531658 271.031179 
L 100.114573 266.399515 
L 104.697487 262.032647 
L 109.280402 257.911001 
L 113.863317 254.014645 
L 118.446231 250.323444 
L 125.320603 245.127175 
L 132.194975 240.279605 
L 139.069347 235.714995 
L 148.235176 229.961096 
L 159.692462 223.112955 
L 198.647236 200.198087 
L 212.39598 191.74772 
L 251.350754 167.576961 
L 260.516583 162.264259 
L 267.390955 158.489711 
L 274.265327 154.936956 
L 281.139698 151.640982 
L 288.01407 148.633092 
L 294.888442 145.93985 
L 301.762814 143.582167 
L 306.345729 142.204251 
L 310.928643 140.984669 
L 315.511558 139.924592 
L 320.094472 139.023729 
L 324.677387 138.280311 
L 329.260302 137.691096 
L 336.134673 137.08575 
L 343.009045 136.794749 
L 349.883417 136.789742 
L 356.757789 137.036419 
L 363.632161 137.495356 
L 372.79799 138.361737 
L 384.255276 139.696435 
L 402.586935 141.88431 
L 411.752764 142.768792 
L 418.627136 143.260576 
L 425.501508 143.567682 
L 432.375879 143.662905 
L 439.250251 143.525918 
L 446.124623 143.143786 
L 452.998995 142.511275 
L 459.873367 141.630941 
L 466.747739 140.513019 
L 473.622111 139.175095 
L 480.496482 137.641574 
L 489.662312 135.346123 
L 501.119598 132.197628 
L 526.325628 125.112134 
L 533.2 123.3618 
L 533.2 123.3618 
" clip-path="url(#p18648653ca)" style="fill: none; stroke: #236fa1; stroke-opacity: 0.28; stroke-width: 0.8; stroke-linecap: square"/>
   </g>
   <g id="line2d_26">
    <path d="M 77.2 293.56952 
L 81.782915 288.23543 
L 88.657286 280.66111 
L 95.531658 273.532868 
L 102.40603 266.779167 
L 109.280402 260.332635 
L 118.446231 252.10857 
L 127.61206 244.191173 
L 141.360804 232.663796 
L 161.98392 215.717703 
L 182.607035 198.995612 
L 196.355779 188.125448 
L 205.521608 181.123272 
L 214.687437 174.408833 
L 221.561809 169.612834 
L 228.436181 165.062156 
L 235.310553 160.790992 
L 242.184925 156.830754 
L 249.059296 153.20894 
L 255.933668 149.948112 
L 260.516583 147.983312 
L 265.099497 146.189923 
L 269.682412 144.569974 
L 274.265327 143.124087 
L 278.848241 141.851442 
L 283.431156 140.74976 
L 288.01407 139.815307 
L 292.596985 139.042917 
L 297.179899 138.42603 
L 304.054271 137.77466 
L 310.928643 137.423284 
L 317.803015 137.334445 
L 324.677387 137.465961 
L 333.843216 137.904406 
L 345.300503 138.712325 
L 365.923618 140.203895 
L 375.089447 140.616875 
L 381.963819 140.74425 
L 388.838191 140.681296 
L 395.712563 140.404613 
L 402.586935 139.898082 
L 409.461307 139.153242 
L 416.335678 138.16945 
L 423.21005 136.953836 
L 430.084422 135.521041 
L 436.958794 133.892758 
L 446.124623 131.466976 
L 457.58191 128.142616 
L 485.079397 119.947541 
L 494.245226 117.514065 
L 501.119598 115.889226 
L 507.99397 114.475214 
L 514.868342 113.301618 
L 521.742714 112.391881 
L 528.617085 111.762627 
L 533.2 111.503857 
L 533.2 111.503857 
" clip-path="url(#p18648653ca)" style="fill: none; stroke: #236fa1; stroke-opacity: 0.28; stroke-width: 0.8; stroke-linecap: square"/>
   </g>
   <g id="line2d_27">
    <path d="M 77.2 295.354646 
L 84.074372 286.677389 
L 93.240201 275.523369 
L 102.40603 264.748531 
L 113.863317 251.696875 
L 125.320603 239.02774 
L 136.777889 226.718305 
L 145.943719 217.153179 
L 155.109548 207.884024 
L 164.275377 198.969532 
L 171.149749 192.558025 
L 178.024121 186.4167 
L 184.898492 180.577601 
L 191.772864 175.071864 
L 198.647236 169.928449 
L 205.521608 165.172955 
L 210.104523 162.228802 
L 214.687437 159.471558 
L 219.270352 156.905041 
L 223.853266 154.531812 
L 228.436181 152.353106 
L 233.019095 150.368778 
L 237.60201 148.57727 
L 242.184925 146.97559 
L 246.767839 145.559319 
L 251.350754 144.322629 
L 255.933668 143.258325 
L 260.516583 142.3579 
L 267.390955 141.292917 
L 274.265327 140.5369 
L 281.139698 140.047329 
L 288.01407 139.777732 
L 297.179899 139.674935 
L 310.928643 139.824532 
L 326.968844 139.982336 
L 336.134673 139.854966 
L 343.009045 139.586773 
L 349.883417 139.137786 
L 356.757789 138.485998 
L 363.632161 137.616887 
L 370.506533 136.523712 
L 377.380905 135.207609 
L 384.255276 133.677467 
L 391.129648 131.9496 
L 400.295477 129.379209 
L 409.461307 126.570922 
L 425.501508 121.352827 
L 439.250251 116.922067 
L 448.41608 114.174608 
L 455.290452 112.293052 
L 462.164824 110.606907 
L 469.039196 109.149001 
L 475.913568 107.946585 
L 482.78794 107.020543 
L 489.662312 106.384771 
L 496.536683 106.045755 
L 503.411055 106.002361 
L 510.285427 106.245829 
L 517.159799 106.75999 
L 524.034171 107.521679 
L 530.908543 108.501357 
L 533.2 108.87043 
L 533.2 108.87043 
" clip-path="url(#p18648653ca)" style="fill: none; stroke: #236fa1; stroke-opacity: 0.28; stroke-width: 0.8; stroke-linecap: square"/>
   </g>
   <g id="line2d_28">
    <path d="M 77.2 299.240558 
L 81.782915 292.935523 
L 86.365829 286.890518 
L 90.948744 281.094939 
L 97.823116 272.846097 
L 104.697487 265.099111 
L 111.571859 257.818808 
L 118.446231 250.97058 
L 125.320603 244.520621 
L 132.194975 238.436172 
L 139.069347 232.685771 
L 145.943719 227.239513 
L 152.81809 222.069293 
L 159.692462 217.14903 
L 166.566834 212.454869 
L 175.732663 206.510966 
L 184.898492 200.887286 
L 194.064322 195.548213 
L 203.230151 190.466423 
L 212.39598 185.622636 
L 221.561809 181.00509 
L 230.727638 176.608742 
L 239.893467 172.434245 
L 249.059296 168.486731 
L 258.225126 164.774461 
L 267.390955 161.307398 
L 276.556784 158.095768 
L 285.722613 155.148681 
L 294.888442 152.472862 
L 304.054271 150.071562 
L 313.220101 147.943697 
L 322.38593 146.083243 
L 331.551759 144.478926 
L 340.717588 143.114215 
L 349.883417 141.967606 
L 361.340704 140.801237 
L 372.79799 139.87675 
L 386.546734 138.996843 
L 411.752764 137.680318 
L 434.667337 136.392572 
L 450.707538 135.269265 
L 466.747739 133.920097 
L 485.079397 132.1379 
L 533.2 127.264271 
L 533.2 127.264271 
" clip-path="url(#p18648653ca)" style="fill: none; stroke: #236fa1; stroke-width: 2; stroke-linecap: square"/>
   </g>
   <g id="line2d_29">
    <path d="M 77.2 302.740412 
L 84.074372 291.001966 
L 90.948744 279.849404 
L 97.823116 269.303826 
L 102.40603 262.620421 
L 106.988945 256.220702 
L 111.571859 250.109116 
L 116.154774 244.289256 
L 120.737688 238.763734 
L 125.320603 233.534064 
L 129.903518 228.600566 
L 134.486432 223.962284 
L 139.069347 219.616927 
L 143.652261 215.560823 
L 148.235176 211.788895 
L 152.81809 208.294662 
L 157.401005 205.070247 
L 161.98392 202.106415 
L 166.566834 199.392627 
L 171.149749 196.917105 
L 175.732663 194.666927 
L 180.315578 192.628122 
L 184.898492 190.785794 
L 189.481407 189.124246 
L 196.355779 186.934974 
L 203.230151 185.058382 
L 210.104523 183.435948 
L 219.270352 181.566879 
L 230.727638 179.51441 
L 251.350754 175.90477 
L 260.516583 174.097068 
L 269.682412 172.066213 
L 278.848241 169.774293 
L 288.01407 167.208322 
L 297.179899 164.379706 
L 306.345729 161.322575 
L 317.803015 157.263849 
L 347.59196 146.517557 
L 356.757789 143.498876 
L 363.632161 141.418881 
L 370.506533 139.532009 
L 377.380905 137.865359 
L 384.255276 136.440686 
L 391.129648 135.273686 
L 398.00402 134.373454 
L 404.878392 133.742144 
L 411.752764 133.374829 
L 418.627136 133.259575 
L 425.501508 133.377719 
L 432.375879 133.704345 
L 441.541709 134.410723 
L 450.707538 135.347921 
L 469.039196 137.525258 
L 480.496482 138.796716 
L 489.662312 139.606828 
L 496.536683 140.035909 
L 503.411055 140.276943 
L 510.285427 140.304443 
L 517.159799 140.099335 
L 524.034171 139.649542 
L 530.908543 138.950387 
L 533.2 138.662205 
L 533.2 138.662205 
" clip-path="url(#p18648653ca)" style="fill: none; stroke: #ce6320; stroke-opacity: 0.28; stroke-width: 0.8; stroke-linecap: square"/>
   </g>
   <g id="line2d_30">
    <path d="M 77.2 285.904047 
L 81.782915 278.799775 
L 86.365829 272.063636 
L 90.948744 265.692431 
L 95.531658 259.681718 
L 100.114573 254.025756 
L 104.697487 248.717478 
L 109.280402 243.74847 
L 113.863317 239.108976 
L 118.446231 234.787929 
L 123.029146 230.772985 
L 127.61206 227.050593 
L 132.194975 223.606069 
L 136.777889 220.423695 
L 141.360804 217.486825 
L 145.943719 214.778015 
L 150.526633 212.279153 
L 155.109548 209.971611 
L 161.98392 206.827413 
L 168.858291 204.006115 
L 175.732663 201.443162 
L 184.898492 198.31916 
L 196.355779 194.688799 
L 216.978894 188.215946 
L 228.436181 184.340808 
L 237.60201 181.002631 
L 246.767839 177.430505 
L 255.933668 173.630881 
L 267.390955 168.609447 
L 283.431156 161.269737 
L 301.762814 152.925915 
L 310.928643 148.983098 
L 320.094472 145.311695 
L 326.968844 142.784996 
L 333.843216 140.485812 
L 340.717588 138.438605 
L 347.59196 136.66209 
L 354.466332 135.168604 
L 361.340704 133.963677 
L 368.215075 133.045804 
L 375.089447 132.406421 
L 381.963819 132.030097 
L 388.838191 131.894924 
L 395.712563 131.973101 
L 404.878392 132.351652 
L 414.044221 132.961146 
L 450.707538 135.715699 
L 459.873367 136.003853 
L 466.747739 136.01478 
L 473.622111 135.824824 
L 480.496482 135.418637 
L 487.370854 134.787989 
L 494.245226 133.932031 
L 501.119598 132.857357 
L 507.99397 131.577847 
L 517.159799 129.590103 
L 526.325628 127.342565 
L 533.2 125.536116 
L 533.2 125.536116 
" clip-path="url(#p18648653ca)" style="fill: none; stroke: #ce6320; stroke-opacity: 0.28; stroke-width: 0.8; stroke-linecap: square"/>
   </g>
   <g id="line2d_31">
    <path d="M 77.2 281.060666 
L 81.782915 275.344996 
L 86.365829 269.985475 
L 90.948744 264.964449 
L 95.531658 260.263335 
L 100.114573 255.862724 
L 104.697487 251.742509 
L 109.280402 247.882019 
L 113.863317 244.260163 
L 118.446231 240.855586 
L 125.320603 236.109184 
L 132.194975 231.731389 
L 139.069347 227.651767 
L 145.943719 223.802705 
L 155.109548 218.920081 
L 171.149749 210.693367 
L 187.18995 202.40136 
L 198.647236 196.242934 
L 210.104523 189.831757 
L 223.853266 181.837904 
L 260.516583 160.256544 
L 269.682412 155.235036 
L 276.556784 151.678813 
L 283.431156 148.341348 
L 290.305528 145.253815 
L 297.179899 142.442804 
L 304.054271 139.929444 
L 310.928643 137.728693 
L 317.803015 135.848821 
L 324.677387 134.291087 
L 331.551759 133.04963 
L 338.426131 132.111567 
L 345.300503 131.457303 
L 352.174874 131.061033 
L 359.049246 130.89143 
L 365.923618 130.912492 
L 375.089447 131.16817 
L 388.838191 131.833056 
L 407.169849 132.705299 
L 416.335678 132.920931 
L 425.501508 132.883825 
L 432.375879 132.654368 
L 439.250251 132.232497 
L 446.124623 131.608124 
L 452.998995 130.778433 
L 459.873367 129.747952 
L 466.747739 128.528417 
L 475.913568 126.641357 
L 485.079397 124.513252 
L 498.828141 121.043441 
L 517.159799 116.395687 
L 526.325628 114.289571 
L 533.2 112.885791 
L 533.2 112.885791 
" clip-path="url(#p18648653ca)" style="fill: none; stroke: #ce6320; stroke-opacity: 0.28; stroke-width: 0.8; stroke-linecap: square"/>
   </g>
   <g id="line2d_32">
    <path d="M 77.2 288.510808 
L 81.782915 283.510272 
L 86.365829 278.742013 
L 93.240201 271.97341 
L 100.114573 265.596532 
L 106.988945 259.537559 
L 116.154774 251.83536 
L 125.320603 244.430786 
L 141.360804 231.833755 
L 171.149749 208.508844 
L 203.230151 183.292322 
L 214.687437 174.654419 
L 223.853266 168.059816 
L 230.727638 163.356251 
L 237.60201 158.900403 
L 244.476382 154.725349 
L 251.350754 150.860293 
L 258.225126 147.329561 
L 265.099497 144.15176 
L 269.682412 142.235611 
L 274.265327 140.483829 
L 278.848241 138.896954 
L 283.431156 137.474102 
L 288.01407 136.212966 
L 292.596985 135.109831 
L 299.471357 133.739884 
L 306.345729 132.691002 
L 313.220101 131.934392 
L 320.094472 131.435884 
L 326.968844 131.156819 
L 336.134673 131.052923 
L 347.59196 131.204539 
L 372.79799 131.667274 
L 381.963819 131.581158 
L 391.129648 131.239939 
L 398.00402 130.786445 
L 404.878392 130.148968 
L 411.752764 129.322165 
L 418.627136 128.308019 
L 425.501508 127.115723 
L 434.667337 125.277592 
L 443.833166 123.207455 
L 457.58191 119.829215 
L 475.913568 115.284748 
L 485.079397 113.211671 
L 494.245226 111.396234 
L 501.119598 110.2542 
L 507.99397 109.334169 
L 514.868342 108.660795 
L 521.742714 108.252522 
L 528.617085 108.120963 
L 533.2 108.189438 
L 533.2 108.189438 
" clip-path="url(#p18648653ca)" style="fill: none; stroke: #ce6320; stroke-opacity: 0.28; stroke-width: 0.8; stroke-linecap: square"/>
   </g>
   <g id="line2d_33">
    <path d="M 77.2 297.252406 
L 86.365829 286.130089 
L 95.531658 275.38794 
L 106.988945 262.338016 
L 120.737688 247.058146 
L 134.486432 232.101799 
L 145.943719 219.907928 
L 157.401005 208.04571 
L 166.566834 198.87854 
L 175.732663 190.08166 
L 182.607035 183.776953 
L 189.481407 177.76248 
L 196.355779 172.072001 
L 203.230151 166.736588 
L 210.104523 161.783476 
L 214.687437 158.705062 
L 219.270352 155.811862 
L 223.853266 153.107888 
L 228.436181 150.595846 
L 233.019095 148.277071 
L 237.60201 146.15149 
L 242.184925 144.217597 
L 246.767839 142.472448 
L 251.350754 140.911675 
L 255.933668 139.529525 
L 260.516583 138.318902 
L 265.099497 137.271446 
L 271.973869 135.985021 
L 278.848241 135.00733 
L 285.722613 134.297142 
L 292.596985 133.809677 
L 301.762814 133.424404 
L 313.220101 133.206771 
L 336.134673 132.836621 
L 345.300503 132.448572 
L 354.466332 131.814269 
L 361.340704 131.148995 
L 368.215075 130.308739 
L 375.089447 129.290237 
L 381.963819 128.097582 
L 391.129648 126.256827 
L 400.295477 124.171941 
L 411.752764 121.32001 
L 441.541709 113.748539 
L 450.707538 111.730758 
L 457.58191 110.409893 
L 464.456281 109.288853 
L 471.330653 108.393788 
L 478.205025 107.745106 
L 485.079397 107.356787 
L 491.953769 107.235878 
L 498.828141 107.382179 
L 505.702513 107.788143 
L 512.576884 108.438986 
L 519.451256 109.313002 
L 526.325628 110.382084 
L 533.2 111.612421 
L 533.2 111.612421 
" clip-path="url(#p18648653ca)" style="fill: none; stroke: #ce6320; stroke-opacity: 0.28; stroke-width: 0.8; stroke-linecap: square"/>
   </g>
   <g id="line2d_34">
    <path d="M 77.2 291.093668 
L 81.782915 284.828366 
L 86.365829 278.8279 
L 90.948744 273.081467 
L 95.531658 267.578262 
L 102.40603 259.755927 
L 109.280402 252.420401 
L 116.154774 245.535901 
L 123.029146 239.06729 
L 129.903518 232.980325 
L 136.777889 227.241929 
L 143.652261 221.820452 
L 150.526633 216.685933 
L 157.401005 211.810347 
L 164.275377 207.167826 
L 173.441206 201.300048 
L 182.607035 195.756297 
L 191.772864 190.496104 
L 200.938693 185.487473 
L 210.104523 180.706749 
L 219.270352 176.138202 
L 228.436181 171.773338 
L 237.60201 167.609954 
L 246.767839 163.650998 
L 255.933668 159.903264 
L 265.099497 156.375994 
L 274.265327 153.079446 
L 283.431156 150.02349 
L 292.596985 147.216301 
L 301.762814 144.663212 
L 310.928643 142.365762 
L 320.094472 140.321008 
L 329.260302 138.5211 
L 338.426131 136.953166 
L 347.59196 135.599479 
L 356.757789 134.437916 
L 368.215075 133.216553 
L 381.963819 132.014377 
L 400.295477 130.690086 
L 441.541709 127.825609 
L 459.873367 126.287214 
L 480.496482 124.325225 
L 521.742714 120.307374 
L 533.2 119.377194 
L 533.2 119.377194 
" clip-path="url(#p18648653ca)" style="fill: none; stroke: #ce6320; stroke-width: 2; stroke-linecap: square"/>
   </g>
   <g id="patch_3">
    <path d="M 54.4 325.4 
L 54.4 95.536 
" style="fill: none; stroke: #000000; stroke-width: 0.8; stroke-linejoin: miter; stroke-linecap: square"/>
   </g>
   <g id="patch_4">
    <path d="M 54.4 325.4 
L 556 325.4 
" style="fill: none; stroke: #000000; stroke-width: 0.8; stroke-linejoin: miter; stroke-linecap: square"/>
   </g>
   <g id="text_15">
    <text style="font-size: 12px; font-family: 'DejaVu Sans'; text-anchor: middle" x="305.2" y="89.536" transform="rotate(-0 305.2 89.536)">All seeds; approximate seed-bootstrap 95% bands</text>
   </g>
   <g id="legend_1">
    <g id="patch_5">
     <path d="M 60 125.421 
L 157.24125 125.421 
Q 158.84125 125.421 158.84125 123.821 
L 158.84125 101.136 
Q 158.84125 99.536 157.24125 99.536 
L 60 99.536 
Q 58.4 99.536 58.4 101.136 
L 58.4 123.821 
Q 58.4 125.421 60 125.421 
z
" style="fill: #ffffff; opacity: 0.8; stroke: #cccccc; stroke-linejoin: miter"/>
    </g>
    <g id="line2d_35">
     <path d="M 61.6 106.01475 
L 69.6 106.01475 
L 77.6 106.01475 
" style="fill: none; stroke: #236fa1; stroke-width: 2; stroke-linecap: square"/>
    </g>
    <g id="text_16">
     <text style="font-size: 8px; font-family: 'DejaVu Sans'; text-anchor: start" x="84" y="108.81475" transform="rotate(-0 84 108.81475)">Host mean</text>
    </g>
    <g id="line2d_36">
     <path d="M 61.6 117.75725 
L 69.6 117.75725 
L 77.6 117.75725 
" style="fill: none; stroke: #ce6320; stroke-width: 2; stroke-linecap: square"/>
    </g>
    <g id="text_17">
     <text style="font-size: 8px; font-family: 'DejaVu Sans'; text-anchor: start" x="84" y="120.55725" transform="rotate(-0 84 120.55725)">Host + BCA mean</text>
    </g>
   </g>
  </g>
  <g id="text_18">
   <text style="font-weight: 700; font-size: 16px; font-family: 'DejaVu Sans'; text-anchor: middle" x="288" y="16.3335" transform="rotate(-0 288 16.3335)">SYNTHETIC TEST • Learning curves</text>
  </g>
  <g id="text_19">
   <text style="font-size: 8px; font-family: 'DejaVu Sans'" transform="translate(11.52 398.20175)">5 paired seeds • 200 periodic banks • actor updates = host updates / 2</text>
   <text style="font-size: 8px; font-family: 'DejaVu Sans'" transform="translate(11.52 407.16)">Fixture manifest a7f0bc4a32653138 • NO RESEARCH RESULTS</text>
  </g>
 </g>
 <defs>
  <clipPath id="p18648653ca">
   <rect x="54.4" y="95.536" width="501.6" height="229.864"/>
  </clipPath>
 </defs>
</svg>
